<svg width="125" height="125" viewBox="0 0 125 125" fill="none" xmlns="http://www.w3.org/2000/svg">
<rect width="125" height="125" fill="white" fill-opacity="0.01"/>
<path fill-rule="evenodd" clip-rule="evenodd" d="M32.4186 48.2108C32.4186 48.2108 35.6359 72.0811 24.5311 86.6108C20.3797 82.5632 19.5494 82.2519 17.2662 85.573C15.8132 87.7524 33.1451 109.443 66.0446 109.443C98.944 109.443 115.653 87.7524 113.785 85.573C111.294 82.667 110.256 82.8746 105.482 86.6108C101.539 76.44 95.104 61.7027 95.104 61.7027C95.104 61.7027 110.464 67.9297 112.747 67.9297C115.031 67.9297 115.134 64.0897 114.823 60.6649C114.512 57.24 113.578 44.267 112.747 41.9838C111.917 39.7005 109.738 32.6432 101.331 32.6432C92.9246 32.6432 85.7635 41.9838 85.7635 41.9838L60.8554 43.0216C60.8554 43.0216 55.77 15 33.8716 15C21.6251 15 13.9451 22.2649 13.1148 24.3405C12.2846 26.4162 16.2284 51.3243 16.2284 51.3243C16.6435 54.4378 19.3419 56.6173 22.4554 56.5135C28.0597 56.5135 28.9938 54.6454 32.4186 48.2108ZM40.0986 95.9514C44.5613 86.2995 54.317 80.1762 65.0067 80.3838C83.584 80.3838 90.9527 95.9514 90.9527 95.9514C90.9527 95.9514 78.81 102.178 66.0446 102.178C53.2792 102.178 40.0986 95.9514 40.0986 95.9514Z" fill="#3C2F35"/>
</svg>
