<svg width="125" height="125" viewBox="0 0 125 125" fill="none" xmlns="http://www.w3.org/2000/svg">
<rect width="125" height="125" fill="white" fill-opacity="0.01"/>
<path fill-rule="evenodd" clip-rule="evenodd" d="M90.1568 30.321L87.0432 32.3967C84.76 33.7459 83.2032 33.4345 80.8162 31.3589C77.9103 29.8021 74.693 28.7643 71.4757 28.2453C70.1265 28.0378 68.7773 27.8302 67.3243 27.7264V31.3589H70.4378C72.7211 31.3589 74.5892 33.227 74.5892 35.5102V39.6616H49.6811V35.5102C49.6811 33.227 51.5492 31.3589 53.8324 31.3589H55.9081V27.2075C54.6627 27.2075 53.8324 27.2075 53.8324 27.2075C49.7849 27.2075 46.5676 23.9902 46.5676 19.9426V18.9048C46.5676 15.4799 49.3697 12.6778 52.7946 12.6778C52.7946 12.6778 64.9373 10.6021 74.5892 13.7156C80.0897 15.5837 85.0714 18.801 89.1189 23.0561C91.9211 27.4151 91.6097 29.387 90.1568 30.321ZM74.5892 46.9264C79.7784 46.9264 83.0995 50.8702 83.9297 56.267L92.2324 92.5913C92.2324 102.866 83.8259 111.272 73.5514 111.272H49.6811C39.4065 111.272 31 102.866 31 92.5913L39.3027 56.267C40.3405 51.0778 43.4541 46.9264 48.6432 46.9264H74.5892ZM61.6162 93.6291C68.7773 93.6291 74.5892 87.8172 74.5892 80.6562C74.5892 73.4951 64.5222 61.4562 62.1351 61.4562C59.5405 61.4562 48.6432 73.4951 48.6432 80.6562C48.6432 87.8172 54.4551 93.6291 61.6162 93.6291Z" fill="#3C2F35"/>
</svg>
