<svg width="142" height="186" viewBox="0 0 142 186" fill="none" xmlns="http://www.w3.org/2000/svg">
<rect x="0.5" y="0.5" width="141" height="141" rx="31.5" fill="#F16097" stroke="#FBCCDE"/>
<path fill-rule="evenodd" clip-rule="evenodd" d="M70.939 48C90.239 48 105.879 58.417 105.879 71.267C105.879 84.117 90.237 94.533 70.939 94.533C51.641 94.533 36 84.116 36 71.267C36 58.418 51.643 48 70.939 48ZM58.583 59.294C62.271 59.294 65.262 64.654 65.262 71.267C65.262 77.88 62.271 83.239 58.583 83.239C54.895 83.239 51.905 77.879 51.905 71.267C51.905 64.655 54.895 59.294 58.583 59.294ZM82.957 59.294C86.645 59.294 89.635 64.654 89.635 71.267C89.635 77.88 86.645 83.239 82.957 83.239C79.269 83.239 76.279 77.879 76.279 71.267C76.279 64.655 79.273 59.294 82.957 59.294Z" fill="white"/>
<path d="M18.99 173.43V180H14.13V159.99H23.13C25.47 159.99 27.31 160.52 28.65 161.58C29.99 162.64 30.66 164.28 30.66 166.5C30.66 168.72 29.99 170.43 28.65 171.63C27.31 172.83 25.47 173.43 23.13 173.43H18.99ZM18.99 169.68H22.53C23.57 169.68 24.31 169.41 24.75 168.87C25.19 168.33 25.41 167.65 25.41 166.83C25.41 165.91 25.19 165.17 24.75 164.61C24.31 164.05 23.57 163.77 22.53 163.77H18.99V169.68ZM34.0519 180V159.99H38.9119V180H34.0519ZM52.0732 180.39C50.1132 180.39 48.3932 180.04 46.9132 179.34C45.4532 178.64 44.3232 177.53 43.5232 176.01C42.7232 174.49 42.3232 172.49 42.3232 170.01C42.3232 167.57 42.7232 165.58 43.5232 164.04C44.3232 162.5 45.4532 161.37 46.9132 160.65C48.3732 159.91 50.0932 159.54 52.0732 159.54C53.3332 159.54 54.5532 159.67 55.7332 159.93C56.9332 160.19 58.0932 160.55 59.2132 161.01V165.42C58.0132 164.78 56.8932 164.27 55.8532 163.89C54.8332 163.51 53.7732 163.32 52.6732 163.32C51.5332 163.32 50.5532 163.53 49.7332 163.95C48.9332 164.35 48.3232 165.04 47.9032 166.02C47.4832 166.98 47.2732 168.3 47.2732 169.98C47.2732 171.64 47.4832 172.96 47.9032 173.94C48.3432 174.9 48.9532 175.59 49.7332 176.01C50.5132 176.43 51.4232 176.64 52.4632 176.64C53.0032 176.64 53.5032 176.61 53.9632 176.55C54.4432 176.47 54.8632 176.34 55.2232 176.16V172.62H51.9232V168.84H60.0832V178.26C58.8432 178.96 57.5432 179.49 56.1832 179.85C54.8432 180.21 53.4732 180.39 52.0732 180.39ZM73.2548 180.39C71.2948 180.39 69.5748 180.04 68.0948 179.34C66.6348 178.64 65.5048 177.53 64.7048 176.01C63.9048 174.49 63.5048 172.49 63.5048 170.01C63.5048 167.57 63.9048 165.58 64.7048 164.04C65.5048 162.5 66.6348 161.37 68.0948 160.65C69.5548 159.91 71.2748 159.54 73.2548 159.54C74.5148 159.54 75.7348 159.67 76.9148 159.93C78.1148 160.19 79.2748 160.55 80.3948 161.01V165.42C79.1948 164.78 78.0748 164.27 77.0348 163.89C76.0148 163.51 74.9548 163.32 73.8548 163.32C72.7148 163.32 71.7348 163.53 70.9148 163.95C70.1148 164.35 69.5048 165.04 69.0848 166.02C68.6648 166.98 68.4548 168.3 68.4548 169.98C68.4548 171.64 68.6648 172.96 69.0848 173.94C69.5248 174.9 70.1348 175.59 70.9148 176.01C71.6948 176.43 72.6048 176.64 73.6448 176.64C74.1848 176.64 74.6848 176.61 75.1448 176.55C75.6248 176.47 76.0448 176.34 76.4048 176.16V172.62H73.1048V168.84H81.2648V178.26C80.0248 178.96 78.7248 179.49 77.3648 179.85C76.0248 180.21 74.6548 180.39 73.2548 180.39ZM85.5265 180V159.99H90.3865V180H85.5265ZM94.6378 180V159.99H108.348V163.74H99.4978V168.09H107.178V171.87H99.4978V176.25H108.348V180H94.6378ZM119.141 180.39C117.621 180.39 116.301 180.28 115.181 180.06C114.081 179.86 113.041 179.52 112.061 179.04V174.42C112.981 175.16 114.021 175.72 115.181 176.1C116.341 176.48 117.451 176.67 118.511 176.67C119.391 176.67 120.081 176.5 120.581 176.16C121.081 175.82 121.331 175.28 121.331 174.54C121.331 174 121.101 173.57 120.641 173.25C120.201 172.93 119.601 172.64 118.841 172.38C118.101 172.12 117.281 171.83 116.381 171.51C115.601 171.25 114.851 170.91 114.131 170.49C113.431 170.07 112.851 169.5 112.391 168.78C111.951 168.06 111.731 167.1 111.731 165.9C111.731 164.8 112.001 163.77 112.541 162.81C113.081 161.83 113.921 161.04 115.061 160.44C116.201 159.84 117.661 159.54 119.441 159.54C120.661 159.54 121.691 159.65 122.531 159.87C123.391 160.09 124.281 160.42 125.201 160.86V165.51C124.501 164.97 123.691 164.48 122.771 164.04C121.871 163.6 120.921 163.35 119.921 163.29C119.001 163.25 118.231 163.4 117.611 163.74C116.991 164.08 116.681 164.61 116.681 165.33C116.681 165.89 116.851 166.33 117.191 166.65C117.531 166.97 117.991 167.24 118.571 167.46C119.171 167.66 119.851 167.88 120.611 168.12C121.691 168.44 122.661 168.82 123.521 169.26C124.381 169.7 125.061 170.29 125.561 171.03C126.061 171.77 126.311 172.74 126.311 173.94C126.311 175.16 126.031 176.26 125.471 177.24C124.911 178.2 124.091 178.97 123.011 179.55C121.951 180.11 120.661 180.39 119.141 180.39Z" fill="#3C2F35"/>
</svg>
