<svg width="142" height="190" viewBox="0 0 142 190" fill="none" xmlns="http://www.w3.org/2000/svg">
<path d="M18.36 184L12.75 163.99H18.06L21.21 178L25.26 163.99H29.01L33.09 178.03L36.24 163.99H41.55L35.94 184H31.14L27.15 171.04L23.16 184H18.36ZM40.5443 184L48.1043 163.99H53.4143L60.4943 184H55.5143L54.0443 179.68H46.5743L45.1343 184H40.5443ZM47.7443 176.11H52.8443L50.2643 168.52L47.7443 176.11ZM63.0265 184V163.99H67.8865V180.19H76.5865V184H63.0265ZM79.6671 184V163.99H84.5271V180.19H93.2271V184H79.6671ZM96.3077 184V163.99H110.018V167.74H101.168V172.09H108.848V175.87H101.168V180.25H110.018V184H96.3077ZM118.291 184V167.74H112.681V163.99H128.851V167.74H123.151V184H118.291Z" fill="#3C2F35"/>
<rect x="0.5" y="0.5" width="141" height="141" rx="31.5" fill="#F16097" stroke="#FBCCDE"/>
<path fill-rule="evenodd" clip-rule="evenodd" d="M104.545 112H37.4545C35.4775 112 33.5814 111.216 32.1834 109.821C30.7854 108.426 30 106.534 30 104.561V59.9237C29.9997 58.7305 30.2875 57.5549 30.8389 56.4962C31.3904 55.4376 32.1894 54.5271 33.1682 53.8419C33.2965 53.4379 33.5158 53.0687 33.8093 52.7624C34.1028 52.4561 34.4626 52.221 34.8613 52.075L92.4318 31.1655C92.9824 30.9669 93.5816 30.9465 94.1445 31.1071C94.7073 31.2677 95.2052 31.6011 95.5674 32.0601C96.2433 32.1407 96.8662 32.4655 97.3186 32.9732C97.7709 33.4808 98.0214 34.1361 98.0227 34.8155V52.4842H104.545C106.523 52.4842 108.419 53.268 109.817 54.6632C111.215 56.0584 112 57.9506 112 59.9237V104.561C112 106.534 111.215 108.426 109.817 109.821C108.419 111.216 106.523 112 104.545 112ZM90.5682 39.7581L55.5318 52.4842H90.5682V39.7581ZM105.246 73.8727H90.5561C88.3351 73.8727 86.205 74.7532 84.6346 76.3205C83.0641 77.8878 82.1818 80.0135 82.1818 82.23V82.2542C82.1818 83.3517 82.3984 84.4384 82.8193 85.4524C83.2401 86.4664 83.8569 87.3877 84.6346 88.1637C85.4122 88.9398 86.3354 89.5554 87.3514 89.9753C88.3674 90.3953 89.4563 90.6115 90.5561 90.6115H105.246V73.8727ZM105.246 97.1211H90.5682C86.614 97.1211 82.8218 95.5535 80.0259 92.7631C77.2299 89.9728 75.6591 86.1883 75.6591 82.2421C75.6591 78.296 77.2299 74.5115 80.0259 71.7211C82.8218 68.9308 86.614 67.3632 90.5682 67.3632H105.246V64.1084C105.246 63.1219 104.854 62.1757 104.155 61.4781C103.456 60.7806 102.507 60.3887 101.519 60.3887H41.4166C40.4281 60.3887 39.4801 60.7806 38.7811 61.4781C38.0821 62.1757 37.6894 63.1219 37.6894 64.1084V101.306C37.6894 102.292 38.0821 103.238 38.7811 103.936C39.4801 104.634 40.4281 105.025 41.4166 105.025H101.519C102.507 105.025 103.456 104.634 104.155 103.936C104.854 103.238 105.246 102.292 105.246 101.306V97.1211ZM88.0076 82.2421C88.0076 81.5524 88.2125 80.8782 88.5964 80.3047C88.9804 79.7312 89.5262 79.2843 90.1647 79.0203C90.8032 78.7564 91.5057 78.6873 92.1836 78.8219C92.8614 78.9564 93.484 79.2885 93.9727 79.7762C94.4614 80.264 94.7942 80.8853 94.929 81.5618C95.0639 82.2382 94.9947 82.9394 94.7302 83.5766C94.4657 84.2138 94.0178 84.7585 93.4432 85.1417C92.8686 85.5248 92.193 85.7294 91.5019 85.7294C91.0428 85.7296 90.5883 85.6396 90.1641 85.4644C89.7399 85.2893 89.3545 85.0325 89.0298 84.7086C88.7051 84.3848 88.4476 84.0003 88.2719 83.5771C88.0961 83.1538 88.0057 82.7002 88.0057 82.2421H88.0076Z" fill="white"/>
</svg>
