<svg xmlns="http://www.w3.org/2000/svg" xmlns:xlink="http://www.w3.org/1999/xlink" viewBox="0 0 133.58 204.74"><defs><style>.cls-1{fill:url(#linear-gradient);}.cls-2{fill:url(#linear-gradient-2);}.cls-3{fill:#fff;}.cls-4{stroke:#fff;stroke-miterlimit:10;stroke-width:2px;fill:url(#linear-gradient-3);}</style><linearGradient id="linear-gradient" y1="123.66" x2="133.58" y2="123.66" gradientUnits="userSpaceOnUse"><stop offset="0" stop-color="#7fca49"/><stop offset="1" stop-color="#27a2ac"/></linearGradient><linearGradient id="linear-gradient-2" x1="-21.47" y1="28.97" x2="23.65" y2="28.97" gradientTransform="translate(67.88 48.09) rotate(180)" xlink:href="#linear-gradient"/><linearGradient id="linear-gradient-3" x1="54.21" y1="41.68" x2="77.74" y2="41.68" gradientTransform="matrix(1, -0.05, 0.05, 1, -1.2, 1.75)" xlink:href="#linear-gradient"/></defs><g id="Laag_2" data-name="Laag 2"><g id="Grid"><path class="cls-1" d="M133.33,165.06c-1.8,39.53-29.84,39-66.65,39s-66.12.57-66.66-39C-1.21,73.31,46.48,66.5,61.83,45.77a5.93,5.93,0,0,1,9.7,0C86.87,66.5,137.51,73.31,133.33,165.06Z"/><path class="cls-2" d="M44.31,3.8c.61-11.18,10,5.92,22.48,5.92S89.16-7.39,89.34,3.8c.42,25.94-15.69,27.87-20.87,33.73a2.24,2.24,0,0,1-3.28,0C60,31.67,42.9,29.74,44.31,3.8Z"/><polygon class="cls-3" points="110.47 159.11 103.94 146.96 73.58 165.8 73.58 154.17 99.26 138.24 92.73 126.08 73.58 137.97 73.58 119.8 60.53 119.8 60.53 204.74 73.58 204.74 73.58 182 110.47 159.11"/><polygon class="cls-3" points="40.85 125.93 34.32 138.09 55.08 150.97 55.08 134.76 40.85 125.93"/><polygon class="cls-3" points="29.64 146.8 23.11 158.96 55.08 178.8 55.08 162.59 29.64 146.8"/><path class="cls-4" d="M67.66,46a15.32,15.32,0,0,1-11.76-5.1,4,4,0,0,1,.1-5.32,3.34,3.34,0,0,1,4.94.09c.92,1,5.8,5.67,11.79.16a3.34,3.34,0,0,1,4.93.41,4,4,0,0,1-.38,5.31A15.29,15.29,0,0,1,67.66,46Z"/></g></g></svg>