<svg xmlns="http://www.w3.org/2000/svg" xmlns:xlink="http://www.w3.org/1999/xlink" viewBox="0 0 171.23 237.99"><defs><style>.cls-1,.cls-3{fill:#fff;}.cls-1{stroke-miterlimit:10;stroke-width:2px;stroke:url(#linear-gradient);}.cls-2{fill:url(#linear-gradient-2);}</style><linearGradient id="linear-gradient" x1="42.08" y1="103.73" x2="171.23" y2="103.73" gradientUnits="userSpaceOnUse"><stop offset="0" stop-color="#7fca49"/><stop offset="1" stop-color="#27a2ac"/></linearGradient><linearGradient id="linear-gradient-2" x1="0" y1="148.85" x2="118.06" y2="148.85" xlink:href="#linear-gradient"/></defs><g id="Laag_2" data-name="Laag 2"><g id="Grid"><path class="cls-1" d="M170.23,207.47V27.36A26.36,26.36,0,0,0,143.87,1H69.43A26.36,26.36,0,0,0,43.08,27.36V41.84a3.3,3.3,0,0,0,3.3,3.31H70.81a3.3,3.3,0,0,0,3.3-3.31v-3a8.06,8.06,0,0,1,8.06-8.06h49a8.06,8.06,0,0,1,8.06,8.06V207.47"/><path class="cls-2" d="M118.06,171.44c0,35.64-26.43,64.53-59,64.53S0,207.08,0,171.44C0,141.68,41.15,82.68,54.74,64a5.2,5.2,0,0,1,8.59,0C76.92,82.68,118.06,141.68,118.06,171.44Z"/><polygon class="cls-3" points="102.71 195.55 96.18 184.25 65.83 201.77 65.83 190.96 91.5 176.14 84.97 164.83 65.83 175.88 65.83 158.99 52.77 158.99 52.77 238 65.83 238 65.83 216.85 102.71 195.55"/><polygon class="cls-3" points="33.09 164.69 26.56 175.99 47.33 187.98 47.33 172.91 33.09 164.69"/><polygon class="cls-3" points="21.88 184.1 15.36 195.41 47.33 213.87 47.33 198.79 21.88 184.1"/></g></g></svg>