<svg xmlns="http://www.w3.org/2000/svg" xmlns:xlink="http://www.w3.org/1999/xlink" viewBox="0 0 1173.75 1410.96"><defs><style>.cls-1{fill:url(#linear-gradient);}.cls-2{fill:url(#linear-gradient-2);}.cls-3{opacity:0.21;}.cls-4{fill:url(#linear-gradient-3);}.cls-5{mask:url(#mask);}.cls-6{fill:url(#linear-gradient-4);}.cls-7{mask:url(#mask-2);}.cls-8{fill:url(#linear-gradient-5);}.cls-9{fill:url(#linear-gradient-6);}</style><linearGradient id="linear-gradient" x1="-207.17" y1="846.59" x2="1171.37" y2="846.59" gradientUnits="userSpaceOnUse"><stop offset="0" stop-color="#fff"/><stop offset="0.17" stop-color="#fcfcfc"/><stop offset="0.31" stop-color="#f2f2f2"/><stop offset="0.43" stop-color="#e1e1e1"/><stop offset="0.55" stop-color="#cac9c9"/><stop offset="0.67" stop-color="#acaaab"/><stop offset="0.78" stop-color="#878485"/><stop offset="0.89" stop-color="#5b5858"/><stop offset="0.99" stop-color="#292526"/><stop offset="1" stop-color="#231f20"/></linearGradient><linearGradient id="linear-gradient-2" x1="-207.17" y1="749.66" x2="1171.37" y2="749.66" xlink:href="#linear-gradient"/><linearGradient id="linear-gradient-3" x1="397.64" y1="222.72" x2="1173.75" y2="222.72" gradientUnits="userSpaceOnUse"><stop offset="0" stop-color="#7fca49"/><stop offset="1" stop-color="#27a2ac"/></linearGradient><mask id="mask" x="-207.17" y="259.58" width="1380.92" height="1174.02" maskUnits="userSpaceOnUse"><rect class="cls-1" x="-207.17" y="259.58" width="1378.53" height="1174.02"/></mask><linearGradient id="linear-gradient-4" x1="0" y1="865.23" x2="1173.75" y2="865.23" xlink:href="#linear-gradient-3"/><mask id="mask-2" x="-207.17" y="162.65" width="1380.92" height="1174.02" maskUnits="userSpaceOnUse"><rect class="cls-2" x="-207.17" y="162.65" width="1378.53" height="1174.02"/></mask><linearGradient id="linear-gradient-5" x1="0" y1="768.3" x2="1173.75" y2="768.3" xlink:href="#linear-gradient-3"/><linearGradient id="linear-gradient-6" x1="537.98" y1="183.53" x2="1173.75" y2="183.53" xlink:href="#linear-gradient-3"/></defs><g id="Laag_2" data-name="Laag 2"><g id="Grid"><g id="Layer_7" data-name="Layer 7"><g class="cls-3"><path class="cls-4" d="M397.64,0l776.11,445.44L1172.34,1.05"/></g><g class="cls-5"><g class="cls-3"><path class="cls-6" d="M199.22,345.05,6.85,678.25a51.1,51.1,0,0,0,18.71,69.8L1173.75,1411V848.69L269,326.35A51.11,51.11,0,0,0,199.22,345.05Z"/></g></g><g class="cls-7"><g class="cls-3"><path class="cls-8" d="M199.22,248.12,6.85,581.32a51.1,51.1,0,0,0,18.71,69.8L1173.75,1314V751.76L269,229.42A51.11,51.11,0,0,0,199.22,248.12Z"/></g></g><g class="cls-3"><path class="cls-9" d="M538,0l635.77,367.06-1.41-366"/></g></g></g></g></svg>