<?xml version="1.0" encoding="utf-8"?>
<!-- Generator: Adobe Illustrator 25.0.1, SVG Export Plug-In . SVG Version: 6.00 Build 0)  -->
<svg version="1.1" id="Layer_1" xmlns="http://www.w3.org/2000/svg" xmlns:xlink="http://www.w3.org/1999/xlink" x="0px"
     y="0px"
     viewBox="0 0 250.77 441.98" style="enable-background:new 0 0 250.77 441.98;" xml:space="preserve">
<style type="text/css">
	.st0{fill:#FFFFFF;stroke:#010101;stroke-miterlimit:10;}
	.st1{fill:url(#SVGID_1_);}
	.st2{fill:#010101;}
	.st3{opacity:0.35;}
</style>
    <path class="st0" d="M239.89,19.32c0-7.42-6.01-13.43-13.43-13.43H24.32c-7.42,0-13.43,6.01-13.43,13.43v403.59
	c0,7.28,5.9,13.18,13.18,13.18H226.7c7.28,0,13.18-5.9,13.18-13.18V19.32z"/>
    <g>
	<linearGradient id="SVGID_1_" gradientUnits="userSpaceOnUse" x1="21.3825" y1="217.7257" x2="229.3919" y2="217.7257">
		<stop offset="0" style="stop-color:#83C44D"/>
        <stop offset="1" style="stop-color:#28A3AC"/>
	</linearGradient>
        <path class="st1" d="M177.11,385.58H73.66c-28.87,0-52.28-23.41-52.28-52.28V88.57c0-21.38,17.33-38.71,38.71-38.71h130.6
		c21.38,0,38.71,17.33,38.71,38.71V333.3C229.39,362.18,205.98,385.58,177.11,385.58z"/>
</g>
    <g>
	<path class="st2" d="M133.45,31.34h-26.68c-1.43,0-2.59-1.16-2.59-2.59v0c0-1.43,1.16-2.59,2.59-2.59h26.68
		c1.43,0,2.59,1.16,2.59,2.59v0C136.04,30.18,134.88,31.34,133.45,31.34z"/>
        <path class="st2" d="M144.01,31.34L144.01,31.34c-1.43,0-2.59-1.16-2.59-2.59v0c0-1.43,1.16-2.59,2.59-2.59l0,0
		c1.43,0,2.59,1.16,2.59,2.59v0C146.6,30.18,145.44,31.34,144.01,31.34z"/>
</g>
    <path class="st2" d="M125.39,422.46L125.39,422.46c-6.12,0-11.08-4.96-11.08-11.08v0c0-6.12,4.96-11.08,11.08-11.08h0
	c6.12,0,11.08,4.96,11.08,11.08v0C136.47,417.49,131.51,422.46,125.39,422.46z"/>
    <g class="st3">
	<defs>
		<path id="SVGID_2_" class="st3" d="M173.79,385.58H70.34c-28.87,0-52.28-23.41-52.28-52.28V88.57c0-21.38,17.33-38.71,38.71-38.71
			h130.6c21.38,0,38.71,17.33,38.71,38.71V333.3C226.07,362.18,202.66,385.58,173.79,385.58z"/>
	</defs>
        <clipPath id="SVGID_3_">
		<use xlink:href="#SVGID_2_" style="overflow:visible;"/>
	</clipPath>
</g>
</svg>