<svg xmlns="http://www.w3.org/2000/svg" xmlns:xlink="http://www.w3.org/1999/xlink" viewBox="0 0 269.97 217.16"><defs><style>.cls-1{fill:url(#linear-gradient);}.cls-2,.cls-3{fill:none;stroke-width:2px;}.cls-2,.cls-4{stroke:#fff;}.cls-2,.cls-3,.cls-4,.cls-5{stroke-miterlimit:10;}.cls-3,.cls-5{stroke:#54b67a;}.cls-4{fill:#54b67a;}.cls-5{fill:#fff;}</style><linearGradient id="linear-gradient" y1="143.56" x2="209.27" y2="143.56" gradientUnits="userSpaceOnUse"><stop offset="0" stop-color="#7fca49"/><stop offset="1" stop-color="#27a2ac"/></linearGradient></defs><g id="Laag_2" data-name="Laag 2"><g id="Grid"><rect class="cls-1" y="69.97" width="209.27" height="147.2" rx="5.1"/><line class="cls-2" x1="11.9" y1="98.88" x2="11.9" y2="172.7"/><line class="cls-2" x1="27.7" y1="128.14" x2="27.7" y2="201.96"/><line class="cls-2" x1="43.5" y1="117.59" x2="43.5" y2="173.7"/><line class="cls-2" x1="59.3" y1="135.79" x2="59.3" y2="209.61"/><line class="cls-2" x1="75.1" y1="115.17" x2="75.1" y2="188.99"/><line class="cls-2" x1="90.9" y1="102.52" x2="90.9" y2="152.08"/><line class="cls-2" x1="106.7" y1="59.98" x2="106.7" y2="146.43"/><line class="cls-2" x1="122.5" y1="95.11" x2="122.5" y2="149.09"/><line class="cls-2" x1="138.3" y1="109.52" x2="138.3" y2="144.38"/><line class="cls-2" x1="154.1" y1="132.79" x2="154.1" y2="171.29"/><line class="cls-2" x1="169.9" y1="142.77" x2="169.9" y2="216.6"/><line class="cls-2" x1="185.7" y1="155.19" x2="185.7" y2="194.65"/><line class="cls-2" x1="201.5" y1="91.23" x2="201.5" y2="165.05"/><line class="cls-3" x1="217.3" y1="88.23" x2="217.3" y2="137.79"/><line class="cls-3" x1="233.1" y1="54.32" x2="233.1" y2="128.14"/><line class="cls-3" x1="248.9" y1="41.01" x2="248.9" y2="54.32"/><line class="cls-3" x1="264.7" x2="264.7" y2="39.46"/><rect class="cls-4" x="7.22" y="119.71" width="9.53" height="46.11"/><rect class="cls-5" x="22.93" y="163.61" width="9.53" height="34.58"/><rect class="cls-4" x="38.73" y="131.8" width="9.53" height="34.58"/><rect class="cls-4" x="54.53" y="144.38" width="9.53" height="53.82"/><rect class="cls-4" x="70.33" y="123.98" width="9.53" height="48.72"/><rect class="cls-4" x="196.74" y="107.44" width="9.53" height="48.72"/><rect class="cls-4" x="180.93" y="161.9" width="9.53" height="26.04"/><rect class="cls-4" x="244.14" y="42.62" width="9.53" height="11.69"/><rect class="cls-4" x="259.94" y="13.4" width="9.53" height="26.06"/><rect class="cls-4" x="165.13" y="146.93" width="9.53" height="48.72"/><rect class="cls-4" x="228.34" y="54.32" width="9.53" height="67.16"/><rect class="cls-4" x="117.73" y="97.74" width="9.53" height="29.21"/><rect class="cls-5" x="86.13" y="109.52" width="9.53" height="28.28"/><rect class="cls-5" x="101.93" y="117.66" width="9.53" height="28.28"/><rect class="cls-5" x="133.53" y="120.82" width="9.53" height="14.63"/><rect class="cls-5" x="149.33" y="139.11" width="9.53" height="21.77"/><rect class="cls-5" x="212.54" y="111.21" width="9.53" height="21.77"/></g></g></svg>