<svg xmlns="http://www.w3.org/2000/svg" xmlns:xlink="http://www.w3.org/1999/xlink" viewBox="0 0 218.68 212.51"><defs><style>.cls-1,.cls-6{fill:none;}.cls-2{fill:url(#linear-gradient);}.cls-3,.cls-4,.cls-5,.cls-9{fill:#54b67a;}.cls-3,.cls-4,.cls-5,.cls-6{stroke:#fff;}.cls-3,.cls-4,.cls-5,.cls-6,.cls-7{stroke-miterlimit:10;}.cls-3{stroke-width:4px;}.cls-5,.cls-7{stroke-width:2px;}.cls-6{stroke-width:3px;}.cls-7{fill:#fff;stroke:url(#linear-gradient-2);}.cls-8{clip-path:url(#clip-path);}.cls-9{font-size:19.47px;font-family:Mukta-Medium, Mukta;font-weight:500;}.cls-10{letter-spacing:-0.01em;}.cls-11{letter-spacing:-0.02em;}.cls-12{letter-spacing:-0.04em;}.cls-13{letter-spacing:0em;}.cls-14{letter-spacing:-0.01em;}</style><linearGradient id="linear-gradient" y1="106.25" x2="131.69" y2="106.25" gradientUnits="userSpaceOnUse"><stop offset="0" stop-color="#7fca49"/><stop offset="1" stop-color="#27a2ac"/></linearGradient><linearGradient id="linear-gradient-2" x1="74.91" y1="136.08" x2="217.91" y2="136.08" xlink:href="#linear-gradient"/><clipPath id="clip-path"><circle class="cls-1" cx="146.41" cy="136.08" r="70.5"/></clipPath></defs><g id="Laag_2" data-name="Laag 2"><g id="Grid"><rect class="cls-2" width="131.69" height="212.51" rx="6.09"/><line class="cls-3" x1="23.66" y1="31.32" x2="108.84" y2="31.32"/><line class="cls-4" x1="43.66" y1="42.08" x2="108.84" y2="42.08"/><line class="cls-4" x1="43.66" y1="47.89" x2="108.84" y2="47.89"/><line class="cls-4" x1="43.66" y1="53.69" x2="108.84" y2="53.69"/><line class="cls-4" x1="43.66" y1="59.5" x2="108.84" y2="59.5"/><line class="cls-4" x1="43.66" y1="65.31" x2="108.84" y2="65.31"/><line class="cls-4" x1="43.66" y1="71.12" x2="108.84" y2="71.12"/><line class="cls-4" x1="43.66" y1="76.92" x2="108.84" y2="76.92"/><line class="cls-4" x1="43.66" y1="82.73" x2="108.84" y2="82.73"/><line class="cls-4" x1="43.66" y1="88.54" x2="108.84" y2="88.54"/><line class="cls-4" x1="43.66" y1="94.35" x2="108.84" y2="94.35"/><line class="cls-4" x1="43.66" y1="100.16" x2="108.84" y2="100.16"/><line class="cls-4" x1="43.66" y1="105.96" x2="108.84" y2="105.96"/><line class="cls-4" x1="43.66" y1="111.77" x2="108.84" y2="111.77"/><line class="cls-4" x1="43.66" y1="117.58" x2="108.84" y2="117.58"/><line class="cls-4" x1="43.66" y1="123.39" x2="108.84" y2="123.39"/><line class="cls-4" x1="43.66" y1="129.19" x2="108.84" y2="129.19"/><line class="cls-4" x1="43.66" y1="135" x2="108.84" y2="135"/><line class="cls-4" x1="43.66" y1="140.81" x2="108.84" y2="140.81"/><line class="cls-4" x1="43.66" y1="146.62" x2="108.84" y2="146.62"/><line class="cls-4" x1="43.66" y1="152.42" x2="108.84" y2="152.42"/><line class="cls-4" x1="43.66" y1="158.23" x2="108.84" y2="158.23"/><line class="cls-4" x1="43.66" y1="164.04" x2="108.84" y2="164.04"/><line class="cls-4" x1="43.66" y1="169.85" x2="108.84" y2="169.85"/><line class="cls-4" x1="43.66" y1="175.66" x2="108.84" y2="175.66"/><line class="cls-4" x1="43.66" y1="181.46" x2="108.84" y2="181.46"/><line class="cls-4" x1="43.66" y1="187.27" x2="108.84" y2="187.27"/><line class="cls-5" x1="23.66" y1="42.08" x2="35.64" y2="42.08"/><line class="cls-5" x1="23.66" y1="47.89" x2="35.64" y2="47.89"/><line class="cls-5" x1="23.66" y1="53.69" x2="35.64" y2="53.69"/><line class="cls-5" x1="23.66" y1="59.5" x2="35.64" y2="59.5"/><line class="cls-5" x1="23.66" y1="65.31" x2="35.64" y2="65.31"/><line class="cls-5" x1="23.66" y1="71.12" x2="35.64" y2="71.12"/><line class="cls-5" x1="23.66" y1="76.92" x2="35.64" y2="76.92"/><line class="cls-5" x1="23.66" y1="82.73" x2="35.64" y2="82.73"/><line class="cls-5" x1="23.66" y1="88.54" x2="35.64" y2="88.54"/><line class="cls-5" x1="23.66" y1="94.35" x2="35.64" y2="94.35"/><line class="cls-5" x1="23.66" y1="100.16" x2="35.64" y2="100.16"/><line class="cls-5" x1="23.66" y1="105.96" x2="35.64" y2="105.96"/><line class="cls-5" x1="23.66" y1="111.77" x2="35.64" y2="111.77"/><line class="cls-5" x1="23.66" y1="117.58" x2="35.64" y2="117.58"/><line class="cls-5" x1="23.66" y1="123.39" x2="35.64" y2="123.39"/><line class="cls-5" x1="23.66" y1="129.19" x2="35.64" y2="129.19"/><line class="cls-5" x1="23.66" y1="135" x2="35.64" y2="135"/><line class="cls-5" x1="23.66" y1="140.81" x2="35.64" y2="140.81"/><line class="cls-5" x1="23.66" y1="146.62" x2="35.64" y2="146.62"/><line class="cls-5" x1="23.66" y1="152.42" x2="35.64" y2="152.42"/><line class="cls-5" x1="23.66" y1="158.23" x2="35.64" y2="158.23"/><line class="cls-5" x1="23.66" y1="164.04" x2="35.64" y2="164.04"/><line class="cls-5" x1="23.66" y1="169.85" x2="35.64" y2="169.85"/><line class="cls-5" x1="23.66" y1="175.66" x2="35.64" y2="175.66"/><line class="cls-5" x1="23.66" y1="181.46" x2="35.64" y2="181.46"/><line class="cls-5" x1="23.66" y1="187.27" x2="35.64" y2="187.27"/><circle class="cls-6" cx="146.41" cy="136.08" r="70.77"/><circle class="cls-7" cx="146.41" cy="136.08" r="70.5"/><g class="cls-8"><text class="cls-9" transform="translate(104.46 83.69)">JU<tspan class="cls-10" x="17.97" y="0">9</tspan><tspan x="28.07" y="0">38j4</tspan><tspan class="cls-11" x="-28.15" y="23.36">9</tspan><tspan x="-18.24" y="23.36">27aSPLM1</tspan><tspan x="-28.35" y="46.73">d</tspan><tspan class="cls-10" x="-17.74" y="46.73">9</tspan><tspan x="-7.63" y="46.73">3zV2Nv8</tspan><tspan x="-41.24" y="70.09">2</tspan><tspan class="cls-12" x="-31.79" y="70.09">2</tspan><tspan class="cls-13" x="-23.13" y="70.09">4xsFUs013</tspan><tspan x="-18.24" y="93.45">x29M</tspan><tspan class="cls-14" x="26.48" y="93.45">W</tspan><tspan x="42.93" y="93.45">o7</tspan><tspan x="0.54" y="116.82">bl32bs2</tspan></text></g></g></g></svg>