<svg xmlns="http://www.w3.org/2000/svg" xmlns:xlink="http://www.w3.org/1999/xlink" viewBox="0 0 1409.11 2355.36"><defs><style>.cls-1{fill:none;}.cls-2{clip-path:url(#clip-path);}.cls-3{opacity:0.21;}.cls-4{fill:url(#linear-gradient);}.cls-5{fill:url(#linear-gradient-2);}.cls-6{fill:url(#linear-gradient-3);}.cls-7{fill:url(#linear-gradient-4);}.cls-8{fill:url(#linear-gradient-5);}</style><clipPath id="clip-path" transform="translate(194.28)"><rect class="cls-1" y="102.38" width="1347.72" height="2351.85"/></clipPath><linearGradient id="linear-gradient" x1="1270.28" y1="691.13" x2="2157.52" y2="691.13" gradientTransform="matrix(-1, 0, 0, 1, 1994.23, 0)" gradientUnits="userSpaceOnUse"><stop offset="0" stop-color="#7fca49"/><stop offset="1" stop-color="#27a2ac"/></linearGradient><linearGradient id="linear-gradient-2" x1="779.4" y1="1635.58" x2="1992.58" y2="1635.58" xlink:href="#linear-gradient"/><linearGradient id="linear-gradient-3" x1="1301.28" y1="770.45" x2="2188.52" y2="770.45" xlink:href="#linear-gradient"/><linearGradient id="linear-gradient-4" x1="810.4" y1="1714.9" x2="2023.58" y2="1714.9" xlink:href="#linear-gradient"/><linearGradient id="linear-gradient-5" x1="-371.88" y1="1171" x2="-371.88" y2="508.87" gradientTransform="translate(703 337.75)" gradientUnits="userSpaceOnUse"><stop offset="0" stop-color="#fff"/><stop offset="1" stop-color="#fff" stop-opacity="0"/></linearGradient></defs><g id="Laag_2" data-name="Laag 2"><g id="Grid"><g class="cls-2"><g class="cls-3"><path class="cls-4" d="M490.05,222.09,715.91,613.3a60,60,0,0,1-22,82l-857.23,494.93V530L408.09,200.13A60,60,0,0,1,490.05,222.09Z" transform="translate(194.28)"/><path class="cls-5" d="M980.92,1072.31l225.86,391.2a60,60,0,0,1-22,82L1.65,2228.85V1553.72L899,1050.35A60,60,0,0,1,980.92,1072.31Z" transform="translate(194.28)"/></g><g class="cls-3"><path class="cls-6" d="M459.05,301.41,684.91,692.62a60,60,0,0,1-22,82L-194.28,1269.5V609.33L377.09,279.45A60,60,0,0,1,459.05,301.41Z" transform="translate(194.28)"/><path class="cls-7" d="M949.92,1151.63l225.86,391.21a60,60,0,0,1-22,82L-29.35,2308.17V1633L868,1129.67A60,60,0,0,1,949.92,1151.63Z" transform="translate(194.28)"/></g></g><rect class="cls-8" x="-846.56" y="846.62" width="2355.36" height="662.13" transform="translate(1703.08 846.56) rotate(90)"/></g></g></svg>