<svg xmlns="http://www.w3.org/2000/svg" xmlns:xlink="http://www.w3.org/1999/xlink" viewBox="0 0 775.37 884.84"><defs><style>.cls-1,.cls-16,.cls-9{fill:none;}.cls-2{fill:url(#linear-gradient);}.cls-3{clip-path:url(#clip-path);}.cls-10,.cls-11,.cls-12,.cls-13,.cls-14,.cls-15,.cls-4{fill:#fff;}.cls-4{stroke:#000;opacity:0.14;}.cls-10,.cls-11,.cls-12,.cls-13,.cls-14,.cls-15,.cls-16,.cls-4,.cls-9{stroke-miterlimit:10;}.cls-5{opacity:0.1;}.cls-6{fill:url(#linear-gradient-2);}.cls-7{fill:url(#linear-gradient-3);}.cls-8{fill:url(#linear-gradient-4);}.cls-9{stroke:#54b67a;stroke-dasharray:0 8;}.cls-16,.cls-9{stroke-linecap:round;stroke-width:2px;}.cls-10{stroke:url(#linear-gradient-5);}.cls-11{stroke:url(#linear-gradient-6);}.cls-12{stroke:url(#linear-gradient-7);}.cls-13{stroke:url(#linear-gradient-8);}.cls-14{stroke:url(#linear-gradient-9);}.cls-15{stroke:url(#linear-gradient-10);}.cls-16{stroke:#fff;}</style><linearGradient id="linear-gradient" x1="258.72" y1="442.42" x2="517.09" y2="442.42" gradientUnits="userSpaceOnUse"><stop offset="0" stop-color="#7fca49"/><stop offset="1" stop-color="#27a2ac"/></linearGradient><clipPath id="clip-path" transform="translate(-87.22 -24.01)"><rect class="cls-1" width="781.72" height="1056.15"/></clipPath><linearGradient id="linear-gradient-2" x1="553.75" y1="447.75" x2="642.2" y2="447.75" xlink:href="#linear-gradient"/><linearGradient id="linear-gradient-3" x1="234.97" y1="256.92" x2="323.42" y2="256.92" xlink:href="#linear-gradient"/><linearGradient id="linear-gradient-4" x1="234.97" y1="628.63" x2="323.42" y2="628.63" xlink:href="#linear-gradient"/><linearGradient id="linear-gradient-5" x1="298.96" y1="102.71" x2="476.85" y2="102.71" xlink:href="#linear-gradient"/><linearGradient id="linear-gradient-6" x1="298.96" y1="782.13" x2="476.85" y2="782.13" xlink:href="#linear-gradient"/><linearGradient id="linear-gradient-7" x1="597.47" y1="267.94" x2="775.37" y2="267.94" xlink:href="#linear-gradient"/><linearGradient id="linear-gradient-8" x1="597.47" y1="612.28" x2="775.37" y2="612.28" xlink:href="#linear-gradient"/><linearGradient id="linear-gradient-9" x1="0" y1="267.94" x2="177.89" y2="267.94" xlink:href="#linear-gradient"/><linearGradient id="linear-gradient-10" x1="0" y1="615.35" x2="177.89" y2="615.35" xlink:href="#linear-gradient"/></defs><g id="Laag_2" data-name="Laag 2"><g id="Grid"><polygon class="cls-2" points="517.09 517 517.09 367.83 387.9 293.25 258.72 367.83 258.72 517 387.9 591.59 517.09 517"/><g class="cls-3"><polygon class="cls-4" points="542.59 282.46 542.59 231.39 498.37 205.86 454.14 231.39 454.14 282.46 498.37 307.99 542.59 282.46"/><g class="cls-5"><polygon class="cls-6" points="642.2 473.28 642.2 422.21 597.97 396.68 553.75 422.21 553.75 473.28 597.97 498.81 642.2 473.28"/></g><polygon class="cls-4" points="221.62 473.28 221.62 422.21 177.39 396.68 133.17 422.21 133.17 473.28 177.39 498.81 221.62 473.28"/><polygon class="cls-4" points="542.59 654.16 542.59 603.1 498.37 577.56 454.14 603.1 454.14 654.16 498.37 679.69 542.59 654.16"/><g class="cls-5"><polygon class="cls-7" points="323.42 282.46 323.42 231.39 279.19 205.86 234.97 231.39 234.97 282.46 279.19 307.99 323.42 282.46"/></g><g class="cls-5"><polygon class="cls-8" points="323.42 654.16 323.42 603.1 279.19 577.56 234.97 603.1 234.97 654.16 279.19 679.69 323.42 654.16"/></g><line class="cls-9" x1="515.89" y1="515.84" x2="593.29" y2="560.53"/><line class="cls-9" x1="387.9" y1="680.96" x2="387.9" y2="591.59"/><polygon class="cls-10" points="476.35 153.77 476.35 51.64 387.9 0.58 299.46 51.64 299.46 153.77 387.9 204.84 476.35 153.77"/><polygon class="cls-11" points="476.35 833.2 476.35 731.07 387.9 680 299.46 731.07 299.46 833.2 387.9 884.26 476.35 833.2"/><polygon class="cls-12" points="774.87 319.01 774.87 216.88 686.42 165.81 597.97 216.88 597.97 319.01 686.42 370.07 774.87 319.01"/><polygon class="cls-13" points="774.87 663.35 774.87 561.22 686.42 510.15 597.97 561.22 597.97 663.35 686.42 714.41 774.87 663.35"/><polygon class="cls-14" points="177.39 319.01 177.39 216.88 88.95 165.81 0.5 216.88 0.5 319.01 88.95 370.07 177.39 319.01"/><polygon class="cls-15" points="177.39 666.42 177.39 564.29 88.95 513.22 0.5 564.29 0.5 666.42 88.95 717.48 177.39 666.42"/><polyline class="cls-16" points="387.9 577.56 387.9 437.14 502.84 374.99"/><line class="cls-16" x1="274.18" y1="376.53" x2="387.9" y2="437.15"/><line class="cls-9" x1="387.9" y1="295.23" x2="387.9" y2="205.86"/><line class="cls-9" x1="181.32" y1="323.54" x2="258.72" y2="368.23"/><line class="cls-9" x1="259.09" y1="516.49" x2="181.69" y2="561.18"/><line class="cls-9" x1="592.91" y1="322.9" x2="515.51" y2="367.59"/></g></g></g></svg>