<svg xmlns="http://www.w3.org/2000/svg" xmlns:xlink="http://www.w3.org/1999/xlink" viewBox="0 0 152.33 175.89"><defs><style>.cls-1{fill:url(#linear-gradient);}.cls-2{fill:#fff;}.cls-3,.cls-4{fill:none;stroke:#fff;stroke-linecap:round;stroke-miterlimit:10;stroke-width:8px;}.cls-3{opacity:0.25;}</style><linearGradient id="linear-gradient" x1="2.5" y1="87.95" x2="149.83" y2="87.95" gradientUnits="userSpaceOnUse"><stop offset="0" stop-color="#7fca49"/><stop offset="1" stop-color="#27a2ac"/></linearGradient></defs><g id="Laag_2" data-name="Laag 2"><g id="Grid"><polygon class="cls-1" points="2.5 130.48 2.5 45.42 76.16 2.89 149.83 45.42 149.83 130.48 76.16 173 2.5 130.48"/><path class="cls-2" d="M76.16,5.77l71.17,41.09V129L76.16,170.12,5,129V46.86L76.16,5.77m0-5.77-2.5,1.44L2.5,42.53,0,44v87.95l2.5,1.44,71.16,41.09,2.5,1.44,2.5-1.44,71.17-41.09,2.5-1.44V44l-2.5-1.44L78.66,1.44,76.16,0Z"/><path class="cls-3" d="M88.27,49.37a41.7,41.7,0,0,1,29.54,29"/><path class="cls-4" d="M119.36,89.65A41.63,41.63,0,1,1,77.73,48"/></g></g></svg>