<svg xmlns="http://www.w3.org/2000/svg" xmlns:xlink="http://www.w3.org/1999/xlink" viewBox="0 0 402.74 117.08"><defs><style>.cls-1{fill:url(#linear-gradient);}.cls-2{fill:#fff;}.cls-3{fill:url(#linear-gradient-2);}.cls-4{fill:url(#linear-gradient-3);}.cls-5{fill:#54b67a;}</style><linearGradient id="linear-gradient" x1="34.99" y1="98.08" x2="111.11" y2="5.56" gradientUnits="userSpaceOnUse"><stop offset="0" stop-color="#7fca49"/><stop offset="1" stop-color="#27a2ac"/></linearGradient><linearGradient id="linear-gradient-2" x1="-1.81" y1="81.37" x2="88.6" y2="-28.51" xlink:href="#linear-gradient"/><linearGradient id="linear-gradient-3" x1="14" y1="83.62" x2="102.14" y2="-23.51" xlink:href="#linear-gradient"/></defs><g id="Laag_2" data-name="Laag 2"><g id="Grid"><g id="Layer_7" data-name="Layer 7"><polygon class="cls-1" points="55.04 114.58 55.04 2.5 77.73 2.5 77.73 23.57 102.09 9.51 113.44 29.16 77.73 49.78 77.73 58.66 117.28 35.82 128.63 55.47 77.73 84.86 77.73 114.58 55.04 114.58"/><path class="cls-2" d="M75.23,5V27.9l26-15L110,28.25,75.23,48.33V63l41.14-23.75,8.85,15.32-50,28.86v28.66H57.54V5H75.23m5-5H52.54V117.08H80.23V86.3l47.49-27.41,4.33-2.5-2.5-4.33L120.7,36.74l-2.5-4.33-4.33,2.5L80.23,54.33V51.22l32.29-18.64,4.33-2.5-2.5-4.33-8.84-15.33L103,6.09l-4.33,2.5L80.23,19.24V0Z"/><polygon class="cls-3" points="18.61 28.97 29.95 9.31 52.66 22.42 52.66 48.63 18.61 28.97"/><path class="cls-2" d="M30.87,12.73,50.16,23.87V44.3L22,28.05l8.85-15.32M29,5.9l-2.5,4.33L17.69,25.55l-2.5,4.33,4.33,2.5L47.66,48.63,55.16,53V21l-2.5-1.44L33.37,8.4,29,5.9Z"/><polygon class="cls-4" points="3.42 55.28 14.76 35.63 52.66 57.51 52.66 83.71 3.42 55.28"/><path class="cls-2" d="M15.68,39,50.16,59V79.38l-43.33-25L15.68,39m-1.83-6.83-2.5,4.33L2.5,51.86,0,56.19l4.33,2.5,43.33,25L55.16,88v-32l-2.5-1.44L18.18,34.71l-4.33-2.5Z"/></g><path class="cls-5" d="M195.53,29.36v8.42H174.65V51h19.14v8.33H174.65v20H163.78v-50Z"/><path class="cls-5" d="M200.14,79.38V41.51h8.17l1.2,6.83A14,14,0,0,1,213.79,43a11.58,11.58,0,0,1,7.39-2.3,12.37,12.37,0,0,1,3.25.39,10.31,10.31,0,0,1,2.38,1l-1.74,8.33a10.27,10.27,0,0,0-2.23-.83,12.41,12.41,0,0,0-3.17-.36,8.77,8.77,0,0,0-6.47,2.58q-2.58,2.58-2.58,8.46V79.38Z"/><path class="cls-5" d="M262.86,63.18H237.69v.32a7.68,7.68,0,0,0,3.18,6.75A13.93,13.93,0,0,0,249,72.47a22.32,22.32,0,0,0,5.6-.63,31.14,31.14,0,0,0,4.41-1.51l1.9,7.38a26,26,0,0,1-5.4,1.79,34.61,34.61,0,0,1-7.7.75,27.46,27.46,0,0,1-8.06-1.15,18.32,18.32,0,0,1-6.58-3.53,17,17,0,0,1-4.49-6,20.89,20.89,0,0,1-1.67-8.73,23.82,23.82,0,0,1,1.35-8.22,18.06,18.06,0,0,1,3.85-6.31,17.77,17.77,0,0,1,6-4.09A20,20,0,0,1,246,40.72q7.69,0,12.26,4.68t4.57,13.1ZM252.06,56A12,12,0,0,0,251.7,53a6.91,6.91,0,0,0-1.15-2.5,6,6,0,0,0-2-1.71,6.26,6.26,0,0,0-2.94-.63,7,7,0,0,0-5.24,2.14,9.52,9.52,0,0,0-2.46,5.8Z"/><path class="cls-5" d="M265.32,41.51h11.51l6.75,18,2.54,9.21h.32l2.46-9.29,5.87-17.94h10.8L291.68,80.73A63.73,63.73,0,0,1,289,87a27.92,27.92,0,0,1-3.58,5.52,24.44,24.44,0,0,1-5,4.52,25.52,25.52,0,0,1-6.75,3.26l-4.36-8.18a19.82,19.82,0,0,0,7.46-4.6A15.69,15.69,0,0,0,281,80.25l.32-1Z"/><path class="cls-5" d="M310.65,44.84a31.08,31.08,0,0,1,7.23-3.05A29.55,29.55,0,0,1,326,40.72a23,23,0,0,1,6.24.79,12.81,12.81,0,0,1,4.84,2.5,10.87,10.87,0,0,1,3.09,4.37,17,17,0,0,1,1.08,6.39V79.38H333l-1-3.89h-.32A12.57,12.57,0,0,1,327.12,79a15.7,15.7,0,0,1-6.54,1.27,15.21,15.21,0,0,1-5.48-.91,12.41,12.41,0,0,1-4.05-2.46,9.75,9.75,0,0,1-2.5-3.69,12.54,12.54,0,0,1-.84-4.61A10.81,10.81,0,0,1,309.1,63,11.2,11.2,0,0,1,313,59.13a18.6,18.6,0,0,1,5.76-2.22,33.9,33.9,0,0,1,7.1-.71h4.77V53.89A4.52,4.52,0,0,0,329,50a7.42,7.42,0,0,0-4.56-1.23,16.58,16.58,0,0,0-4.73.72,28,28,0,0,0-5.36,2.3Zm20,17.95-3.42.08q-4.83.15-6.74,1.62A4.36,4.36,0,0,0,318.59,68c0,1.8.54,3,1.63,3.69a6.93,6.93,0,0,0,3.69,1,7.2,7.2,0,0,0,3.93-1.19,8.62,8.62,0,0,0,2.82-2.78Z"/><path class="cls-5" d="M351.3,79.38V22.69h10.4V79.38Z"/><path class="cls-5" d="M372.18,44.84a30.83,30.83,0,0,1,7.22-3.05,29.57,29.57,0,0,1,8.1-1.07,22.89,22.89,0,0,1,6.23.79,12.78,12.78,0,0,1,4.85,2.5,10.87,10.87,0,0,1,3.09,4.37,17,17,0,0,1,1.07,6.39V79.38h-8.17l-1-3.89h-.31A12.57,12.57,0,0,1,388.65,79a15.75,15.75,0,0,1-6.55,1.27,15.25,15.25,0,0,1-5.48-.91,12.62,12.62,0,0,1-4.05-2.46,9.87,9.87,0,0,1-2.5-3.69,12.75,12.75,0,0,1-.83-4.61A10.71,10.71,0,0,1,370.63,63a11.2,11.2,0,0,1,3.85-3.86,18.6,18.6,0,0,1,5.76-2.22,33.83,33.83,0,0,1,7.1-.71h4.77V53.89A4.55,4.55,0,0,0,390.48,50a7.46,7.46,0,0,0-4.57-1.23,16.51,16.51,0,0,0-4.72.72,27.73,27.73,0,0,0-5.36,2.3Zm20,17.95-3.41.08q-4.84.15-6.75,1.62a4.35,4.35,0,0,0-1.9,3.54q0,2.7,1.62,3.69a7,7,0,0,0,3.7,1,7.25,7.25,0,0,0,3.93-1.19,8.49,8.49,0,0,0,2.81-2.78Z"/></g></g></svg>