<svg xmlns="http://www.w3.org/2000/svg" xmlns:xlink="http://www.w3.org/1999/xlink" viewBox="0 0 652.19 1483.7"><defs><style>.cls-1,.cls-11,.cls-13,.cls-5,.cls-7,.cls-9{fill:none;}.cls-2{clip-path:url(#clip-path);}.cls-3{fill:url(#Naamloos_verloop_9);}.cls-4{fill:url(#Naamloos_verloop_9-2);}.cls-11,.cls-13,.cls-5,.cls-7,.cls-9{stroke-miterlimit:10;}.cls-5{stroke:url(#Naamloos_verloop_9-3);}.cls-6{fill:url(#Naamloos_verloop_9-4);}.cls-7{stroke:url(#Naamloos_verloop_9-5);}.cls-8{fill:url(#Naamloos_verloop_9-6);}.cls-9{stroke:url(#Naamloos_verloop_9-7);}.cls-10{fill:url(#Naamloos_verloop_9-8);}.cls-11{stroke:url(#Naamloos_verloop_9-9);}.cls-12{fill:#fff;}.cls-13{stroke:#fff;}</style><clipPath id="clip-path" transform="translate(106.28 -42.78)"><rect class="cls-1" x="0.8" width="566.65" height="1231.27"/></clipPath><linearGradient id="Naamloos_verloop_9" x1="-212.55" y1="734.22" x2="439.64" y2="734.22" gradientTransform="matrix(1, 0, 0, -1, 106.27, 1526.78)" gradientUnits="userSpaceOnUse"><stop offset="0" stop-color="#7fca49"/><stop offset="1" stop-color="#27a2ac"/></linearGradient><linearGradient id="Naamloos_verloop_9-2" x1="192.66" y1="1247.86" x2="225.53" y2="1247.86" xlink:href="#Naamloos_verloop_9"/><linearGradient id="Naamloos_verloop_9-3" x1="314.86" y1="1235.39" x2="315.86" y2="1235.39" gradientTransform="matrix(1, 0, 0, -1, 106.28, 1526.78)" xlink:href="#Naamloos_verloop_9"/><linearGradient id="Naamloos_verloop_9-4" x1="358.53" y1="1338.47" x2="380.53" y2="1338.47" xlink:href="#Naamloos_verloop_9"/><linearGradient id="Naamloos_verloop_9-5" x1="475.3" y1="1345.46" x2="476.3" y2="1345.46" gradientTransform="matrix(1, 0, 0, -1, 106.28, 1526.78)" xlink:href="#Naamloos_verloop_9"/><linearGradient id="Naamloos_verloop_9-6" x1="141.35" y1="1402.77" x2="158.78" y2="1402.77" xlink:href="#Naamloos_verloop_9"/><linearGradient id="Naamloos_verloop_9-7" x1="255.83" y1="1417.92" x2="256.83" y2="1417.92" gradientTransform="matrix(1, 0, 0, -1, 106.28, 1526.78)" xlink:href="#Naamloos_verloop_9"/><linearGradient id="Naamloos_verloop_9-8" x1="191.01" y1="1477.58" x2="202.13" y2="1477.58" xlink:href="#Naamloos_verloop_9"/><linearGradient id="Naamloos_verloop_9-9" x1="302.34" y1="1504.04" x2="303.34" y2="1504.04" gradientTransform="matrix(1, 0, 0, -1, 106.28, 1526.78)" xlink:href="#Naamloos_verloop_9"/></defs><g id="Laag_2" data-name="Laag 2"><g id="Laag_1-2" data-name="Laag 1"><g id="Laag_2-2" data-name="Laag 2"><g id="Grid"><g id="Layer_7" data-name="Layer 7"><g class="cls-2"><path class="cls-3" d="M545.91,1498.63s-394.4-579.49-412.36-699.2S177.45,556,379,470.21s195.5-171.59,61.82-243.42S329.09,174.92,404.9,159s82-24.4,78.82-34.91C478.33,106,352.86,79.7,249.28,68.17,130.71,55,38.49,59.33,38.49,59.33s196,0,330.5,37.77c46.18,13,91.78,25.94,26.94,34.92S250.27,152,250.27,179.9,353.09,248.18,383,275.21c30.29,27.4,49.52,52.34-62.85,90.25S-35,458.21-92.91,740.05s86.79,494.34,156.63,677S545.91,1498.63,545.91,1498.63Z" transform="translate(106.28 -42.78)"/></g></g><path class="cls-4" d="M315.37,261.12,330.8,270v17.82l-15.43,8.91-15.44-8.91V270l15.44-8.91m0-1.16-.5.29-15.44,8.91-.5.29v19l.5.29,15.44,8.91.5.29.5-.29,15.43-8.91.5-.29v-19l-.5-.29-15.43-8.91Z" transform="translate(106.28 -42.78)"/><line class="cls-5" x1="421.64" y1="253.98" x2="421.64" y2="328.8"/><path class="cls-6" d="M475.8,176.76l10,5.78v11.54l-10,5.78-10-5.78V182.54l10-5.78m0-1.15-.5.29-10,5.77-.5.29v12.7l.5.29,10,5.77.5.29.5-.29,10-5.77.5-.29V182l-.5-.29-10-5.77-.5-.29Z" transform="translate(106.28 -42.78)"/><line class="cls-7" x1="582.08" y1="157.08" x2="582.08" y2="205.56"/><path class="cls-8" d="M256.34,115.1l7.71,4.46v8.91l-7.71,4.46-7.72-4.46v-8.91l7.72-4.46m0-1.16-.5.29-7.72,4.46-.5.29v10.07l.5.29,7.72,4.45.5.29.5-.29,7.71-4.45.5-.29V119l-.5-.29-7.71-4.46-.5-.29Z" transform="translate(106.28 -42.78)"/><line class="cls-9" x1="362.61" y1="90.15" x2="362.61" y2="127.57"/><path class="cls-10" d="M302.84,43.93l4.56,2.64v5.26l-4.56,2.63-4.56-2.63V46.57l4.56-2.64m0-1.15-.5.29-4.56,2.63-.5.29v6.42l.5.29,4.56,2.63.5.29.5-.29,4.56-2.63.5-.29V46l-.5-.29-4.56-2.63-.5-.29Z" transform="translate(106.28 -42.78)"/><line class="cls-11" x1="409.12" y1="11.69" x2="409.12" y2="33.79"/><path class="cls-12" d="M201.71,466.77l21,12.14v24.28l-21,12.14-21-12.14V478.91l21-12.14m0-1.16-.5.29-21,12.14-.5.29v25.44l.5.29,21,12.14.5.29.5-.29,21-12.14.5-.29V478.33l-.5-.29-21-12.14-.5-.29Z" transform="translate(106.28 -42.78)"/><line class="cls-13" x1="307.99" y1="472.55" x2="307.99" y2="574.5"/><polyline class="cls-13" points="106.53 852.88 142.42 832.16 142.42 790.71 106.53 769.99"/></g></g></g></g></svg>