<svg xmlns="http://www.w3.org/2000/svg" viewBox="0 0 311.28 286.97"><defs><style>.cls-1{fill:#54b67a;}</style></defs><g id="Laag_2" data-name="Laag 2"><g id="Grid"><g id="MaYgDm"><path class="cls-1" d="M275.14,98.68c-3.28-4-5.93-7.85-9.13-11.11-9.05-9.24-20.36-14.49-32.82-17.12C204,64.3,175.58,68,147.68,77.64c-4.62,1.6-7.67,4.5-8.83,9.36-4.07,17-8.5,34-12.12,51.07-1.28,6.05-3.35,10.43-9.13,13.17-6.81,3.23-13.56,5.06-20.68,1.63-3.66-1.76-7-4.09-10.54-6.16l.43-1.15c4.69,0,9.4-.24,14.08.08,3.48.24,5.32-1.21,6.75-4.14A125.7,125.7,0,0,0,118.53,105a109.36,109.36,0,0,0,1.27-23.13c-.5-8-3.89-10.55-11.82-11.52-13.56-1.66-26.86.47-40,3.4-11,2.44-21.81,5.44-32.59,8.57-4.94,1.44-9.42,4.14-11.91,9-1,2-1.38,4.31-2,6.44-5.33-3.94-5.31-11,.78-15.23A95,95,0,0,1,37.5,74.35c15-6.7,30.21-13,45.22-19.74,4.69-2.1,9.26-3.5,14.42-2.5a61.36,61.36,0,0,0,6.92.64,9.88,9.88,0,0,0,10.27-6.17,30.53,30.53,0,0,0,2.38-5.77c1.4-6.74,6.44-8.91,12.22-10.67,15.59-4.76,31.56-6.35,47.76-5.9,13.1.37,26.19,1.07,38.81,5.09,16.31,5.2,28.73,15.73,39,29a132.58,132.58,0,0,1,19.88,37.27C274.66,96.46,274.8,97.33,275.14,98.68ZM135.41,72.25c9.33-2.46,18.07-5.22,27-7a194.55,194.55,0,0,1,27.18-3.63,173.77,173.77,0,0,1,27.75.72c8.89.95,17.63,3.26,26.43,5-36.54-16.86-73.08-11.09-110.1-.39C134.37,69,134.89,70.63,135.41,72.25Z"/><path class="cls-1" d="M12,98.16l-.49-4.09.5-.3c.71,1.06,1.5,2.06,2.1,3.17,1.78,3.23,3.93,5.93,7.81,6.8a4.26,4.26,0,0,1,2.12,1.64c2.39,3.25,4.69,6.57,7.17,10.08a3.74,3.74,0,0,1-1.36.09c-9.44-3.87-18.21-8.73-24.29-17.26a31.26,31.26,0,0,1-3.4-6.79C.07,86.12,1.17,81,5.67,77.71A151.08,151.08,0,0,1,25.38,65.55a170.65,170.65,0,0,1,20.47-8.67c13.21-4.79,23-14.07,32.44-23.9,3.69-3.84,6.83-8.36,11-11.57A53.58,53.58,0,0,1,103,14.15C130.66,3.74,159.37-1.44,188.87.35c30.93,1.88,58.69,12.14,80,35.88,13.83,15.38,21.19,33.85,24.42,54.05a163.55,163.55,0,0,1,.47,47.42c-.65-8.65-.89-16.65-1.92-24.54C289,90.76,282.23,69.77,268,51.74c-11.86-15-27.14-25-45.36-30.63-20.3-6.23-41-6.85-61.94-4.36-7.7.92-15.33,2.41-23,3.54-17.23,2.54-32.44,9.45-46.48,19.77A274.89,274.89,0,0,1,60.08,59.71c-8.81,4.81-18.51,7.95-27.62,12.23a132.88,132.88,0,0,0-18.82,10.3C8,86.15,7.69,91.88,12,98.16Z"/><path class="cls-1" d="M157.69,102.29c23.51-5.2,47-7.43,70.53-.65,18.71,5.41,33.64,15.8,42.25,33.93,10.69,22.49,6,52.25-11.12,70.37-12.76,13.48-28.3,23.12-44.55,31.69C180.43,255.78,144,268.77,106.93,280c-6.76,2.05-13.55,4-20.34,6-1.17.34-2.39.51-4.68,1,4.77-6.14,8.85-11.41,13-16.67,1.57-2,3.46-3.84,4.68-6,3-5.38,7.72-7,13.5-8.14,37.49-7.68,74-18.37,107.43-37.62,13-7.5,24.83-16.56,34.09-28.66,20.28-26.48,10.19-63-18.36-77.53-15.55-7.93-32.26-10.65-49.47-10.73C177.05,101.53,167.37,102,157.69,102.29Z"/><path class="cls-1" d="M0,184.16a64.68,64.68,0,0,0,32.66-15.95c-8.34,1.93-16.58,1.47-24.81-.07-1.56-.3-3.09-.71-5.5-1.26,4.52-1,8.18-1.57,11.7-2.61,12.84-3.79,22.8-11.94,30.85-22.21,8.77-11.21,16.76-23,25.11-34.58,7.38-10.2,15.9-19.09,28.24-23.21A29.74,29.74,0,0,1,108,82.82c-4.26,2.39-8.75,4.47-12.75,7.25C85,97.2,78.32,107.4,72.61,118.26c-6.73,12.82-13.15,25.81-20,38.55-10.87,20.11-29.22,26.91-50.7,27.86a4.53,4.53,0,0,1-1-.1A4.37,4.37,0,0,1,0,184.16Z"/><path class="cls-1" d="M304.9,94c9.41,33.29,8.71,66.23-4.06,98.5-10.83,27.39-28.21,50-51.18,68.26l-.85-.39c1.15-5,2.68-10,3.37-15,1-7.42,4.77-12.39,10.48-17.28,26.43-22.64,40.54-51.83,44-86.35C308.21,125.66,307.27,109.77,304.9,94Z"/><path class="cls-1" d="M251.66,175.86c-6.48,9.1-14.82,16-23.88,22.12-18.67,12.56-38.94,22-60.06,29.49-14,5-28.21,9.1-42.34,13.59-1.16.36-2.4.5-4.45.92,3.4-5.43,6.26-10.16,9.33-14.75.54-.81,1.93-1.15,3-1.48,19.58-6.05,39.34-11.59,58.72-18.23,17.53-6,34.52-13.52,49.92-24.12C245.28,181.07,248.42,178.39,251.66,175.86Z"/><path class="cls-1" d="M115.19,93.31c-1.09,6.68-1.93,13.41-3.37,20-1.35,6.2-3.31,12.27-5.08,18.38-1.65,5.7-3.35,7-9.24,6.33a65.15,65.15,0,0,1-13.72-2.95,84.35,84.35,0,0,1,9.49-1.91c3.55-.32,5.63-2.27,7.41-5,6-9.26,9.11-19.66,11.74-30.24.4-1.63.83-3.26,1.25-4.89Z"/><path class="cls-1" d="M58.17,99.15c-9.89,1.3-18.41-1.34-25.38-8.29-.58-.58-.47-3.07,0-3.34a96.08,96.08,0,0,1,10.54-4.78c.46-.18,1.79.86,2.17,1.61C48.53,90.29,52.06,95.72,58.17,99.15Zm-9.38-1.06A6.37,6.37,0,0,0,49.34,97c0-.06-.16-.14-.25-.21-3.57-3.07-7.08-6.22-10.77-9.14-.64-.5-2.06,0-3.11,0l-.34,1.73Z"/></g></g></g></svg>