<svg width="142" height="190" viewBox="0 0 142 190" fill="none" xmlns="http://www.w3.org/2000/svg">
<path d="M29.13 184V163.99H37.62C39.78 163.99 41.52 164.42 42.84 165.28C44.16 166.12 44.82 167.54 44.82 169.54C44.82 170.5 44.57 171.28 44.07 171.88C43.57 172.46 43 172.93 42.36 173.29C43.42 173.63 44.26 174.2 44.88 175C45.52 175.78 45.84 176.76 45.84 177.94C45.84 179.34 45.5 180.49 44.82 181.39C44.16 182.29 43.27 182.95 42.15 183.37C41.03 183.79 39.79 184 38.43 184H29.13ZM33.99 171.85H37.89C38.37 171.85 38.82 171.71 39.24 171.43C39.66 171.13 39.87 170.63 39.87 169.93C39.87 169.11 39.65 168.55 39.21 168.25C38.77 167.93 38.23 167.77 37.59 167.77H33.99V171.85ZM33.99 180.25H38.07C38.81 180.25 39.46 180.07 40.02 179.71C40.58 179.35 40.86 178.7 40.86 177.76C40.86 176.84 40.56 176.22 39.96 175.9C39.38 175.58 38.72 175.42 37.98 175.42H33.99V180.25ZM47.517 184L55.077 163.99H60.387L67.467 184H62.487L61.017 179.68H53.547L52.107 184H47.517ZM54.717 176.11H59.817L57.237 168.52L54.717 176.11ZM78.1753 184.39C74.9753 184.39 72.5353 183.55 70.8553 181.87C69.1753 180.17 68.3353 177.55 68.3353 174.01C68.3353 170.55 69.1353 167.94 70.7353 166.18C72.3553 164.42 74.8353 163.54 78.1753 163.54C79.2353 163.54 80.3053 163.68 81.3853 163.96C82.4653 164.22 83.5153 164.57 84.5353 165.01V169.24C83.4953 168.56 82.4953 168.07 81.5353 167.77C80.5753 167.47 79.6753 167.32 78.8353 167.32C77.6553 167.32 76.6553 167.53 75.8353 167.95C75.0153 168.37 74.3953 169.07 73.9753 170.05C73.5553 171.03 73.3453 172.35 73.3453 174.01C73.3453 175.67 73.5553 176.98 73.9753 177.94C74.4153 178.9 75.0553 179.59 75.8953 180.01C76.7553 180.41 77.8053 180.61 79.0453 180.61C79.7853 180.61 80.6253 180.47 81.5653 180.19C82.5053 179.91 83.4953 179.43 84.5353 178.75V182.98C83.7153 183.4 82.7153 183.74 81.5353 184C80.3553 184.26 79.2353 184.39 78.1753 184.39ZM88.2218 184V163.99H93.0818V172.36L99.2018 163.99H105.322L97.8218 172.45L105.952 184H99.8618L94.4618 176.2L93.0818 177.73V184H88.2218Z" fill="#3C2F35"/>
<rect x="0.5" y="0.5" width="141" height="141" rx="31.5" fill="#F16097" stroke="#FBCCDE"/>
<path d="M48 76.6962C44 74.3868 44 68.6132 48 66.3038L84.75 45.0862C88.75 42.7768 93.75 45.6636 93.75 50.2824L93.75 92.7176C93.75 97.3364 88.75 100.223 84.75 97.9138L48 76.6962Z" stroke="white" stroke-width="12"/>
</svg>
