<svg width="66" height="66" viewBox="0 0 66 66" fill="none" xmlns="http://www.w3.org/2000/svg">
<path fill-rule="evenodd" clip-rule="evenodd" d="M65.4943 11.4314C65.407 11.8015 65.2194 12.1398 64.9523 12.4086L46.5815 30.9266L40.5432 24.8453L57.6544 7.59283H54.6C54.5074 7.59328 54.4159 7.61237 54.3307 7.64905L53.9659 8.02168C53.9302 8.10137 53.9103 8.18734 53.9074 8.27476V8.07789L38.911 23.1932L34.9652 19.221L53.3368 0.703037C53.585 0.450656 53.8932 0.26648 54.232 0.168035C54.5708 0.0695909 54.9289 0.060117 55.2724 0.140573C55.5056 0.0505752 55.7529 0.00300392 56.0027 0H63.9075C64.4625 0 64.9947 0.222197 65.3871 0.617732C65.7795 1.01327 66 1.54974 66 2.10911V10.0745C65.9978 10.5732 65.8184 11.0546 65.4943 11.4314ZM60.7059 39.9606C60.8995 39.7635 61.1299 39.607 61.3838 39.5002C61.6378 39.3934 61.9102 39.3384 62.1854 39.3384C62.4605 39.3384 62.7329 39.3934 62.9869 39.5002C63.2408 39.607 63.4712 39.7635 63.6647 39.9606L64.651 40.9519C65.0429 41.3474 65.263 41.8834 65.263 42.4423C65.263 43.0013 65.0429 43.5373 64.651 43.9328L56.3416 52.313L65.3667 61.4032C65.7589 61.7999 65.9792 62.3371 65.9792 62.8972C65.9792 63.4572 65.7589 63.9945 65.3667 64.3911L64.3797 65.3824C63.9873 65.7778 63.4551 66 62.9003 66C62.3454 66 61.8133 65.7778 61.4209 65.3824L52.3959 56.2852L44.7687 63.9764C44.3762 64.3718 43.8441 64.5939 43.2892 64.5939C42.7344 64.5939 42.2022 64.3718 41.8098 63.9764L40.8229 62.9851C40.4306 62.5884 40.2103 62.0512 40.2103 61.4911C40.2103 60.931 40.4306 60.3938 40.8229 59.9972L44.5406 56.257L1.04486 12.4086C0.777844 12.1398 0.590212 11.8015 0.502907 11.4314C0.179855 11.0542 0.00145282 10.5728 0 10.0745V2.10911C0 1.54974 0.220459 1.01327 0.612882 0.617732C1.0053 0.222197 1.53755 0 2.09251 0H9.99734C10.2471 0.00300392 10.4944 0.0505752 10.7276 0.140573C11.0711 0.060117 11.4292 0.0695909 11.768 0.168035C12.1068 0.26648 12.415 0.450656 12.6632 0.703037L56.1603 44.5444L60.7059 39.9606ZM12.0857 8.07789V8.27476C12.0827 8.18734 12.0628 8.10137 12.0271 8.02168L11.6623 7.64905C11.5772 7.61237 11.4856 7.59328 11.393 7.59283H8.33797L50.5761 50.1687L52.2103 48.5236L12.0857 8.07789ZM9.65138 52.313L1.3413 43.9328C0.949445 43.5373 0.729338 43.0013 0.729338 42.4423C0.729338 41.8834 0.949445 41.3474 1.3413 40.9519L2.32827 39.9606C2.52182 39.7635 2.75222 39.607 3.00616 39.5002C3.26009 39.3934 3.53252 39.3384 3.80768 39.3384C4.08284 39.3384 4.35526 39.3934 4.6092 39.5002C4.86313 39.607 5.09354 39.7635 5.28709 39.9606L9.83691 44.5444L19.5399 34.7651L23.485 38.7444L13.7827 48.5236L15.4169 50.1687L25.1199 40.3894L31.1575 46.4778L21.4552 56.257L25.1729 59.9972C25.5652 60.3938 25.7855 60.931 25.7855 61.4911C25.7855 62.0512 25.5652 62.5884 25.1729 62.9851L24.186 63.9764C23.7936 64.3718 23.2614 64.5939 22.7066 64.5939C22.1517 64.5939 21.6196 64.3718 21.2272 63.9764L13.5999 56.2852L4.57494 65.3824C4.18253 65.7778 3.65039 66 3.09553 66C2.54067 66 2.00852 65.7778 1.61612 65.3824L0.629155 64.3911C0.236869 63.9945 0.0165819 63.4572 0.0165819 62.8972C0.0165819 62.3371 0.236869 61.7999 0.629155 61.4032L9.65138 52.313Z" fill="#FEEEF2"/>
</svg>
