<?xml version="1.0" encoding="utf-8"?>
<!-- Generator: Adobe Illustrator 25.3.1, SVG Export Plug-In . SVG Version: 6.00 Build 0)  -->
<svg version="1.1" id="Eat" xmlns="http://www.w3.org/2000/svg" xmlns:xlink="http://www.w3.org/1999/xlink" x="0px" y="0px"
	 viewBox="0 0 242 232" style="enable-background:new 0 0 242 232;" xml:space="preserve">
<style type="text/css">
	.st0{fill-rule:evenodd;clip-rule:evenodd;fill:#FCFCFC;}
	.st1{fill-rule:evenodd;clip-rule:evenodd;fill:#3C2F35;}
	.st2{fill:#B2AFB1;}
	.st3{font-family:'Arial-BoldMT';}
	.st4{font-size:30px;}
</style>
<path id="Button" class="st0" d="M43,16h155c11,0,20,9,20,20v145c0,11-9,20-20,20H43c-11,0-20-9-20-20V36C23,25,32,16,43,16z
	 M195,27c5.5,0,10,4.5,10,10v145c0,5.5-4.5,10-10,10c-5.5,0-10-4.5-10-10V37C185,31.5,189.5,27,195,27z"/>
<path id="Eat_Vector" class="st1" d="M153,85.2c-8.2,8.2-19.1,11-26.7,7.7l-8.1,8.1l32.8,32.8c1.2,1.2,1.2,3.1,0,4.2l-1.4,1.4
	c-1.2,1.2-3.1,1.2-4.2,0c0,0,0,0,0,0l-32.8-32.8l-32.8,32.8c-1.2,1.2-3.1,1.2-4.2,0c0,0,0,0,0,0l-1.4-1.4c-1.2-1.2-1.2-3.1,0-4.2
	l46.1-46.1c-4.9-7.6-2.3-19.7,6.6-28.6c9.9-9.9,23.7-12,31-4.8S162.8,75.3,153,85.2z M76,87c-12.9-12.9-11.3-25.8-8-29s7,0,7,0
	l34,34l-13,13C96,105,88.9,99.9,76,87z"/>
<text id="EAT-2" transform="matrix(1 0 0 1 81.5043 178.022)" class="st2 st3 st4">EAT</text>
</svg>
