<svg width="125" height="125" viewBox="0 0 125 125" fill="none" xmlns="http://www.w3.org/2000/svg">
<rect width="125" height="125" fill="white" fill-opacity="0.01"/>
<path fill-rule="evenodd" clip-rule="evenodd" d="M62.1838 107.938C22.6422 107.938 16 87.2849 16 61.7541C16 36.2233 36.4454 22.0049 61.9762 22.0049C69.8638 21.9011 77.5438 23.4578 84.8087 26.3638C84.9124 28.3357 86.0541 29.9962 87.8184 30.8265L87.0919 31.553C86.0541 33.4211 85.2238 35.393 84.8087 37.4687V39.5443C84.8087 42.4503 87.0919 44.7335 89.9978 44.7335H100.376C101.725 44.7335 103.075 44.2146 104.009 43.2805C107.018 48.9887 108.471 55.2157 108.368 61.6503C108.471 87.1811 101.206 107.938 62.1838 107.938ZM42.4649 64.5562C42.4649 67.1508 40.2854 69.2265 37.6908 69.1227C35.2 69.1227 33.1243 67.047 33.1243 64.5562C33.1243 61.9616 29.8032 61.8578 29.8032 64.5562C29.8032 69.1227 33.5395 72.8589 38.1059 72.8589C42.6724 72.8589 46.4087 69.1227 46.4087 64.5562C46.4087 61.4427 42.4649 62.0654 42.4649 64.5562ZM42.2573 84.2751C42.2573 96.9368 43.5027 98.8049 62.4951 98.8049C81.1762 98.8049 82.733 97.2481 82.733 84.2751C82.733 72.6514 81.4876 69.7454 62.4951 69.7454C43.2951 69.7454 42.2573 71.6135 42.2573 84.2751ZM84.8087 45.8751C84.8087 44.1108 83.8746 42.4503 82.4216 41.5162L82.5254 41.4124C83.4595 39.1292 84.186 36.846 84.8087 34.4589V32.3833C84.8087 29.4773 82.5254 27.1941 79.6195 27.1941H69.2411C66.3351 27.1941 64.0519 29.4773 64.0519 32.3833V34.4589C64.0519 36.5346 65.2973 38.4027 67.1654 39.233L66.4389 39.9595C65.4011 41.8276 64.5708 43.7995 64.1557 45.8751V47.9508C64.1557 50.8568 66.4389 53.14 69.3449 53.14H79.7232C82.6292 53.14 84.9124 50.8568 84.9124 47.9508V45.8751H84.8087ZM90.2054 64.5562C90.2054 67.1508 88.026 69.2265 85.4314 69.1227C82.9406 69.1227 80.8649 67.047 80.8649 64.5562C80.8649 61.9616 77.5438 61.8578 77.5438 64.5562C77.5438 69.1227 81.28 72.8589 85.8465 72.8589C90.413 72.8589 94.1492 69.1227 94.1492 64.5562C94.1492 61.4427 90.2054 62.0654 90.2054 64.5562ZM78.7892 49.1962H70.1751C68.7222 49.1962 67.5805 48.0546 67.5805 46.6016V44.8373C68.0995 43.6957 68.4108 42.5541 68.7222 41.4124L71.4205 37.8838H70.1751C68.7222 37.8838 67.5805 36.7422 67.5805 35.2892V33.5249C67.5805 32.0719 68.7222 30.9303 70.1751 30.9303H78.7892C80.2422 30.9303 81.3838 32.0719 81.3838 33.5249V35.2892C81.3838 36.1195 80.9687 36.9497 80.2422 37.3649C80.1384 37.6762 80.0346 37.9876 79.827 38.1951L76.8173 42.1389H78.7892C80.2422 42.1389 81.3838 43.2806 81.3838 44.7335V46.4978C81.3838 48.0546 80.1384 49.1962 78.7892 49.1962ZM70.2789 92.7854C67.4768 92.7854 65.2973 89.4643 65.2973 85.313C65.2973 81.1616 67.4768 77.8406 70.2789 77.8406C73.0811 77.8406 75.2605 81.1616 75.2605 85.313C75.2605 89.4643 73.0811 92.7854 70.2789 92.7854ZM54.7114 92.7854C51.9092 92.7854 49.7297 89.4643 49.7297 85.313C49.7297 81.1616 51.9092 77.8406 54.7114 77.8406C57.5135 77.8406 59.693 81.1616 59.693 85.313C59.693 89.4643 57.5135 92.7854 54.7114 92.7854ZM99.5459 40.8935H90.9319C89.4789 40.8935 88.3373 39.7519 88.3373 38.2989V36.5346C88.8562 35.393 89.1676 34.2514 89.4789 33.1097L92.1773 29.5811H90.9319C89.4789 29.5811 88.3373 28.4395 88.3373 26.9865V25.2222C88.3373 23.7692 89.4789 22.6276 90.9319 22.6276H99.5459C100.999 22.6276 102.141 23.7692 102.141 25.2222V26.9865C102.141 27.8168 101.725 28.647 100.999 29.166C100.895 29.4773 100.791 29.7887 100.584 29.9962L97.5741 33.94H99.5459C100.999 33.94 102.141 35.0816 102.141 36.5346V38.2989C102.141 39.7519 100.895 40.8935 99.5459 40.8935Z" fill="#3C2F35"/>
</svg>
