<svg id="Gamesettings" xmlns="http://www.w3.org/2000/svg" width="113" height="170" viewBox="0 0 113 170">
  <defs>
    <style>
      .cls-1, .cls-2 {
        fill: #3c2f35;
      }

      .cls-1 {
        fill-rule: evenodd;
      }

      .cls-2 {
        font-size: 30px;
        text-anchor: middle;
        font-family: "Maven Pro";
        font-weight: 700;
      }
    </style>
  </defs>
  <path id="GS_Vector" class="cls-1" d="M122.732,63.408c3.281,0,2.725,8.518,8.464,12.231s14.376-1.008,16.251,2.04,5.6,9.736,7.245,12.55-5.268,6.676-5.268,13.765,7.143,11.729,5.268,14.777-5.37,9.736-7.245,12.55-9.163-1-15.239,2.04-5.726,12.231-9.476,12.231H108.243c-3.751,0-2.915-7.146-8.653-11.535s-13.953.312-16.063-2.736a115.122,115.122,0,0,1-7.245-12.55c-1.406-3.048,6.306-6.339,6.306-13.765s-7.946-11.729-6.306-14.777,5.6-9.971,7.245-12.55c2.109-3.048,10.2,1.673,16.276-2.04s4.221-12.231,8.44-12.231h14.489Zm-4.909,8.645c2.624,0,3.194,6.961,9.28,11.07,5.56,3.755,13.848.237,15.347,2.674s1.4,3.2,2.714,5.455-4.861,5.1-4.561,12.872c0.309,7.982,5.994,12.515,4.494,14.952s-0.381.807-1.881,3.762c-1.223,2.412-8.988-.732-15.363,3.037-6.355,3.757-7.031,11.071-10.03,11.071h-4.7c-3,0-3.023-6.308-9.428-10.555-5.989-3.971-14.278-.175-15.965-2.612a20.851,20.851,0,0,1-2.821-4.7c-1.125-2.437,6.194-7.1,6.194-14.2,0-7.784-7.546-12.125-6.234-14.563A47.884,47.884,0,0,1,87.553,85.8c1.687-2.438,10.369,1.129,16.3-2.674,6.68-4.285,4.955-11.07,8.329-11.07h5.643ZM115.5,88A16.5,16.5,0,1,1,99,104.5,16.5,16.5,0,0,1,115.5,88Zm0,8a8.5,8.5,0,1,1-8.5,8.5A8.5,8.5,0,0,1,115.5,96Z" transform="translate(-60 -57.203)"/>
  <text id="Game_settings" data-name="Game settings" class="cls-2" x="56.392" y="126.616">Game<tspan x="56.392" dy="36">settings</tspan></text>
</svg>
