<svg width="125" height="125" viewBox="0 0 125 125" fill="none" xmlns="http://www.w3.org/2000/svg">
<rect width="125" height="125" fill="white" fill-opacity="0.01"/>
<path fill-rule="evenodd" clip-rule="evenodd" d="M104.63 51.5028C96.12 60.0131 84.8076 62.9191 76.9201 59.4942L68.5136 67.9007L102.555 101.942C103.8 103.187 103.8 105.159 102.555 106.301L101.102 107.754C99.8563 108.999 97.8844 108.999 96.7427 107.754L62.7017 73.7126L28.6606 107.754C27.4152 108.999 25.4433 108.999 24.3017 107.754L22.8487 106.301C21.6033 105.055 21.6033 103.083 22.8487 101.942L70.693 54.0974C65.6076 46.2099 68.306 33.652 77.5428 24.4153C87.8173 14.1407 102.14 11.9612 109.716 19.4336C117.292 26.9061 114.801 41.2282 104.63 51.5028ZM24.7168 53.3709C11.3287 39.9828 12.9892 26.5947 16.4141 23.2736C19.839 19.9526 23.679 23.2736 23.679 23.2736L58.9655 58.5601L45.4736 72.052C45.4736 72.052 38.1049 66.759 24.7168 53.3709Z" fill="#3C2F35"/>
</svg>
