<svg width="142" height="190" viewBox="0 0 142 190" fill="none" xmlns="http://www.w3.org/2000/svg">
<path d="M11.13 184V163.99H16.08L21.69 171.79L27.42 163.99H32.25V184H27.39V170.44L21.51 178.3L15.78 170.47V184H11.13ZM34.7611 184L42.3211 163.99H47.6311L54.7111 184H49.7311L48.2611 179.68H40.7911L39.3511 184H34.7611ZM41.9611 176.11H47.0611L44.4811 168.52L41.9611 176.11ZM57.2433 184V163.99H66.9933C69.2533 163.99 71.0233 164.52 72.3033 165.58C73.5833 166.62 74.2233 168.2 74.2233 170.32C74.2233 171.16 74.0633 171.98 73.7433 172.78C73.4433 173.56 72.9833 174.26 72.3633 174.88C71.7633 175.48 71.0133 175.91 70.1133 176.17L75.2433 184H69.0633L65.1033 177.1H62.1033V184H57.2433ZM62.1033 173.53H66.1833C67.0433 173.53 67.7233 173.3 68.2233 172.84C68.7233 172.38 68.9733 171.62 68.9733 170.56C68.9733 169.64 68.7533 168.94 68.3133 168.46C67.8733 167.98 67.2333 167.74 66.3933 167.74H62.1033V173.53ZM78.5128 184V163.99H83.3728V172.36L89.4928 163.99H95.6128L88.1128 172.45L96.2428 184H90.1528L84.7528 176.2L83.3728 177.73V184H78.5128ZM98.9034 184V163.99H112.613V167.74H103.763V172.09H111.443V175.87H103.763V180.25H112.613V184H98.9034ZM120.887 184V167.74H115.277V163.99H131.447V167.74H125.747V184H120.887Z" fill="#3C2F35"/>
<rect x="0.5" y="0.5" width="141" height="141" rx="31.5" fill="#F16097" stroke="#FBCCDE"/>
<path fill-rule="evenodd" clip-rule="evenodd" d="M106.6 54.8878C106.431 55.5937 106.071 56.2395 105.56 56.7548L91.771 70.5438C91.0208 71.294 90.0034 71.7155 88.9425 71.7155C87.8816 71.7155 86.8642 71.294 86.114 70.5438C85.3638 69.7937 84.9424 68.7762 84.9424 67.7153C84.9424 66.6545 85.3638 65.637 86.114 64.8868L93.826 57.1788H39C37.9391 57.1788 36.9217 56.7574 36.1716 56.0073C35.4214 55.2571 35 54.2397 35 53.1788C35 52.118 35.4214 51.1006 36.1716 50.3504C36.9217 49.6003 37.9391 49.1788 39 49.1788H93.514L86.114 41.7788C85.3854 41.0244 84.9822 40.014 84.9913 38.9652C85.0004 37.9165 85.4211 36.9132 86.1627 36.1716C86.9044 35.4299 87.9076 35.0093 88.9564 35.0002C90.0052 34.991 91.0156 35.3942 91.77 36.1228L105.558 49.9108C106.247 50.5158 106.721 51.3281 106.909 52.2256C107.097 53.123 106.989 54.0573 106.6 54.8878ZM35.4 87.1328C35.5685 86.4235 35.9282 85.774 36.44 85.2548L50.226 71.3788C50.5964 71.0055 51.037 70.7091 51.5225 70.5069C52.0079 70.3047 52.5286 70.2005 53.0545 70.2005C53.5804 70.2005 54.1011 70.3047 54.5865 70.5069C55.072 70.7091 55.5126 71.0055 55.883 71.3788C56.6333 72.1358 57.0543 73.1585 57.0543 74.2243C57.0543 75.2902 56.6333 76.3129 55.883 77.0698L48.174 84.8238H103C104.067 84.8238 105.091 85.2478 105.845 86.0024C106.6 86.7571 107.024 87.7806 107.024 88.8479C107.024 89.9151 106.6 90.9386 105.845 91.6933C105.091 92.4479 104.067 92.8718 103 92.8718H48.486L55.886 100.311C56.6365 101.068 57.0576 102.09 57.0576 103.156C57.0576 104.222 56.6365 105.244 55.886 106.001C55.5157 106.374 55.0752 106.671 54.5898 106.873C54.1045 107.075 53.5838 107.179 53.058 107.179C52.5322 107.179 52.0116 107.075 51.5262 106.873C51.0408 106.671 50.6003 106.374 50.23 106.001L36.442 92.1308C35.7543 91.5203 35.2816 90.7045 35.0939 89.8043C34.9062 88.904 35.0136 87.9673 35.4 87.1328Z" fill="white"/>
</svg>
