<?xml version="1.0" encoding="utf-8"?>
<!-- Generator: Adobe Illustrator 25.3.1, SVG Export Plug-In . SVG Version: 6.00 Build 0)  -->
<svg version="1.1" id="ItemsRight" xmlns="http://www.w3.org/2000/svg" xmlns:xlink="http://www.w3.org/1999/xlink" x="0px" y="0px"
	 viewBox="0 0 361 184" style="enable-background:new 0 0 361 184;" xml:space="preserve">
<style type="text/css">
	.st0{fill:#5C7AD9;}
	.st1{fill:#6381DC;}
	.st2{fill-rule:evenodd;clip-rule:evenodd;fill:#FEEEF2;}
	.st3{fill:#3C2F35;}
	.st4{font-family:'Arial-BoldMT';}
	.st5{font-size:30px;}
</style>
<path id="Rectangle_5_copy_3" class="st0" d="M34,9h292c11,0,20,9,20,20v115c0,11-9,20-20,20H34c-11,0-20-9-20-20V29
	C14,18,23,9,34,9z"/>
<path id="Rectangle_5_copy_4" class="st0" d="M34,9h292c11,0,20,9,20,20v115c0,11-9,20-20,20H34c-11,0-20-9-20-20V29
	C14,18,23,9,34,9z"/>
<rect x="193" y="18" class="st1" width="7" height="134"/>
<path id="Search_Vector" class="st2" d="M291,100l19,19c1.6,1.6,1.6,4.1,0,5.7c0,0,0,0,0,0l-1.4,1.4c-1.6,1.6-4.1,1.6-5.7,0
	c0,0,0,0,0,0l-19-19c-1.2-1.2-1.5-3.2-0.7-4.7l-1.8-1.8c-12.7,11-32,9.7-43.1-3c-11-12.7-9.7-32,3-43.1c12.7-11,32-9.7,43.1,3
	c10,11.5,10,28.5,0,40l1.8,1.8C287.9,98.5,289.8,98.7,291,100z M261.5,56.5c-11.6,0-21,9.4-21,21s9.4,21,21,21s21-9.4,21-21
	S273.1,56.5,261.5,56.5L261.5,56.5z"/>
<text id="AGE" transform="matrix(1 0 0 1 72.8861 137.022)" class="st3 st4 st5">AGE</text>
</svg>
