<?xml version="1.0" encoding="utf-8"?>
<!-- Generator: Adobe Illustrator 25.3.1, SVG Export Plug-In . SVG Version: 6.00 Build 0)  -->
<svg version="1.1" id="Nap" xmlns="http://www.w3.org/2000/svg" xmlns:xlink="http://www.w3.org/1999/xlink" x="0px" y="0px"
	 viewBox="0 0 242 232" style="enable-background:new 0 0 242 232;" xml:space="preserve">
<style type="text/css">
	.st0{fill-rule:evenodd;clip-rule:evenodd;fill:#FCFCFC;}
	.st1{fill-rule:evenodd;clip-rule:evenodd;fill:#3C2F35;}
	.st2{fill:#B2AFB1;}
	.st3{font-family:'Arial-BoldMT';}
	.st4{font-size:30px;}
</style>
<path id="Button" class="st0" d="M43,16h155c11,0,20,9,20,20v145c0,11-9,20-20,20H43c-11,0-20-9-20-20V36C23,25,32,16,43,16z
	 M195,27c5.5,0,10,4.5,10,10v145c0,5.5-4.5,10-10,10s-10-4.5-10-10V37C185,31.5,189.5,27,195,27z"/>
<path id="Nap_Vector" class="st1" d="M109.2,136.8c-38.1,0-44.5-19.9-44.5-44.5S84.4,54,109,54c7.6-0.1,15,1.4,22,4.2
	c0.1,1.9,1.2,3.5,2.9,4.3l-0.7,0.7c-1,1.8-1.8,3.7-2.2,5.7v2c0,2.8,2.2,5,5,5h10c1.3,0,2.6-0.5,3.5-1.4c2.9,5.5,4.3,11.5,4.2,17.7
	C153.8,116.8,146.8,136.8,109.2,136.8z M90.2,95c0,2.5-2.1,4.5-4.6,4.4c-2.4,0-4.4-2-4.4-4.4c0-2.5-3.2-2.6-3.2,0c0,4.4,3.6,8,8,8
	c4.4,0,8-3.6,8-8C94,92,90.2,92.6,90.2,95z M90,114c0,12.2,1.2,14,19.5,14c18,0,19.5-1.5,19.5-14c0-11.2-1.2-14-19.5-14
	C91,100,90,101.8,90,114z M131,77c0-1.7-0.9-3.3-2.3-4.2l0.1-0.1c0.9-2.2,1.6-4.4,2.2-6.7v-2c0-2.8-2.2-5-5-5h-10c-2.8,0-5,2.2-5,5
	v2c0,2,1.2,3.8,3,4.6l-0.7,0.7c-1,1.8-1.8,3.7-2.2,5.7v2c0,2.8,2.2,5,5,5h10c2.8,0,5-2.2,5-5V77z M136.2,95c0,2.5-2.1,4.5-4.6,4.4
	c-2.4,0-4.4-2-4.4-4.4c0-2.5-3.2-2.6-3.2,0c0,4.4,3.6,8,8,8c4.4,0,8-3.6,8-8C140,92,136.2,92.6,136.2,95z M125.2,80.2h-8.3
	c-1.4,0-2.5-1.1-2.5-2.5v-1.7c0.5-1.1,0.8-2.2,1.1-3.3l2.6-3.4h-1.2c-1.4,0-2.5-1.1-2.5-2.5v-1.7c0-1.4,1.1-2.5,2.5-2.5h8.3
	c1.4,0,2.5,1.1,2.5,2.5v1.7c0,0.8-0.4,1.6-1.1,2c-0.1,0.3-0.2,0.6-0.4,0.8l-2.9,3.8h1.9c1.4,0,2.5,1.1,2.5,2.5v1.7
	C127.7,79.1,126.5,80.2,125.2,80.2z M117,122.2c-2.7,0-4.8-3.2-4.8-7.2s2.1-7.2,4.8-7.2s4.8,3.2,4.8,7.2S119.7,122.2,117,122.2z
	 M102,122.2c-2.7,0-4.8-3.2-4.8-7.2s2.1-7.2,4.8-7.2s4.8,3.2,4.8,7.2S104.7,122.2,102,122.2z M145.2,72.2h-8.3
	c-1.4,0-2.5-1.1-2.5-2.5v-1.7c0.5-1.1,0.8-2.2,1.1-3.3l2.6-3.4h-1.2c-1.4,0-2.5-1.1-2.5-2.5c0,0,0,0,0,0v-1.7c0-1.4,1.1-2.5,2.5-2.5
	h8.3c1.4,0,2.5,1.1,2.5,2.5v1.7c0,0.8-0.4,1.6-1.1,2.1c-0.1,0.3-0.2,0.6-0.4,0.8l-2.9,3.8h1.9c1.4,0,2.5,1.1,2.5,2.5c0,0,0,0,0,0
	v1.7C147.7,71.1,146.5,72.2,145.2,72.2z"/>
<text id="NAP-2" transform="matrix(1 0 0 1 75.7211 178.022)" class="st2 st3 st4">NAP</text>
</svg>
