<?xml version="1.0" encoding="utf-8"?>
<!-- Generator: Adobe Illustrator 25.3.1, SVG Export Plug-In . SVG Version: 6.00 Build 0)  -->
<svg version="1.1" id="Play" xmlns="http://www.w3.org/2000/svg" xmlns:xlink="http://www.w3.org/1999/xlink" x="0px" y="0px"
	 viewBox="0 0 242 232" style="enable-background:new 0 0 242 232;" xml:space="preserve">
<style type="text/css">
	  @font-face {
		font-family: "Maven Pro";
		src: url('/fonts/MavenPro-Regular.woff')
	  }
	.st0{fill-rule:evenodd;clip-rule:evenodd;fill:#FCFCFC;}
	.st1{fill-rule:evenodd;clip-rule:evenodd;fill:#3C2F35;}
	.st2{fill:#B2AFB1;}
	.st3{font-family:Maven Pro !important;}
	.st4{font-size:30px;}
</style>
<path id="Button" class="st0" d="M43,16h155c11,0,20,9,20,20v145c0,11-9,20-20,20H43c-11,0-20-9-20-20V36C23,25,32,16,43,16z
	 M195,27c5.5,0,10,4.5,10,10v145c0,5.5-4.5,10-10,10s-10-4.5-10-10V37C185,31.5,189.5,27,195,27z"/>
<path id="Play_Vector" class="st1" d="M78.6,78c0,0,3.1,23-7.6,37c-4-3.9-4.8-4.2-7-1c-1.4,2.1,15.3,23,47,23s47.8-20.9,46-23
	c-2.4-2.8-3.4-2.6-8,1c-3.8-9.8-10-24-10-24s14.8,6,17,6s2.3-3.7,2-7s-1.2-15.8-2-18s-2.9-9-11-9s-15,9-15,9l-24,1c0,0-4.9-27-26-27
	c-11.8,0-19.2,7-20,9s3,26,3,26c0.4,3,3,5.1,6,5C74.4,86,75.3,84.2,78.6,78z M86,124c4.3-9.3,13.7-15.2,24-15c17.9,0,25,15,25,15
	s-11.7,6-24,6S86,124,86,124z"/>
<text id="PLAY-2" transform="matrix(1 0 0 1 72.7631 178.022)" class="st2 st3 st4">PLAY</text>
</svg>
