<svg width="142" height="190" viewBox="0 0 142 190" fill="none" xmlns="http://www.w3.org/2000/svg">
<path d="M9.85 184.39C8.33 184.39 7.01 184.28 5.89 184.06C4.79 183.86 3.75 183.52 2.77 183.04V178.42C3.69 179.16 4.73 179.72 5.89 180.1C7.05 180.48 8.16 180.67 9.22 180.67C10.1 180.67 10.79 180.5 11.29 180.16C11.79 179.82 12.04 179.28 12.04 178.54C12.04 178 11.81 177.57 11.35 177.25C10.91 176.93 10.31 176.64 9.55 176.38C8.81 176.12 7.99 175.83 7.09 175.51C6.31 175.25 5.56 174.91 4.84 174.49C4.14 174.07 3.56 173.5 3.1 172.78C2.66 172.06 2.44 171.1 2.44 169.9C2.44 168.8 2.71 167.77 3.25 166.81C3.79 165.83 4.63 165.04 5.77 164.44C6.91 163.84 8.37 163.54 10.15 163.54C11.37 163.54 12.4 163.65 13.24 163.87C14.1 164.09 14.99 164.42 15.91 164.86V169.51C15.21 168.97 14.4 168.48 13.48 168.04C12.58 167.6 11.63 167.35 10.63 167.29C9.71 167.25 8.94 167.4 8.32 167.74C7.7 168.08 7.39 168.61 7.39 169.33C7.39 169.89 7.56 170.33 7.9 170.65C8.24 170.97 8.7 171.24 9.28 171.46C9.88 171.66 10.56 171.88 11.32 172.12C12.4 172.44 13.37 172.82 14.23 173.26C15.09 173.7 15.77 174.29 16.27 175.03C16.77 175.77 17.02 176.74 17.02 177.94C17.02 179.16 16.74 180.26 16.18 181.24C15.62 182.2 14.8 182.97 13.72 183.55C12.66 184.11 11.37 184.39 9.85 184.39ZM20.4445 184V163.99H34.1545V167.74H25.3045V172.09H32.9845V175.87H25.3045V180.25H34.1545V184H20.4445ZM42.4277 184V167.74H36.8177V163.99H52.9877V167.74H47.2877V184H42.4277ZM60.0351 184V167.74H54.4251V163.99H70.5951V167.74H64.8951V184H60.0351ZM73.4425 184V163.99H78.3025V184H73.4425ZM82.5538 184V163.99H86.6938L95.5438 175.9V163.99H100.014V184H96.3538L87.0238 171.79V184H82.5538ZM113.173 184.39C111.213 184.39 109.493 184.04 108.013 183.34C106.553 182.64 105.423 181.53 104.623 180.01C103.823 178.49 103.423 176.49 103.423 174.01C103.423 171.57 103.823 169.58 104.623 168.04C105.423 166.5 106.553 165.37 108.013 164.65C109.473 163.91 111.193 163.54 113.173 163.54C114.433 163.54 115.653 163.67 116.833 163.93C118.033 164.19 119.193 164.55 120.313 165.01V169.42C119.113 168.78 117.993 168.27 116.953 167.89C115.933 167.51 114.873 167.32 113.773 167.32C112.633 167.32 111.653 167.53 110.833 167.95C110.033 168.35 109.423 169.04 109.003 170.02C108.583 170.98 108.373 172.3 108.373 173.98C108.373 175.64 108.583 176.96 109.003 177.94C109.443 178.9 110.053 179.59 110.833 180.01C111.613 180.43 112.523 180.64 113.563 180.64C114.103 180.64 114.603 180.61 115.063 180.55C115.543 180.47 115.963 180.34 116.323 180.16V176.62H113.023V172.84H121.183V182.26C119.943 182.96 118.643 183.49 117.283 183.85C115.943 184.21 114.573 184.39 113.173 184.39ZM132.164 184.39C130.644 184.39 129.324 184.28 128.204 184.06C127.104 183.86 126.064 183.52 125.084 183.04V178.42C126.004 179.16 127.044 179.72 128.204 180.1C129.364 180.48 130.474 180.67 131.534 180.67C132.414 180.67 133.104 180.5 133.604 180.16C134.104 179.82 134.354 179.28 134.354 178.54C134.354 178 134.124 177.57 133.664 177.25C133.224 176.93 132.624 176.64 131.864 176.38C131.124 176.12 130.304 175.83 129.404 175.51C128.624 175.25 127.874 174.91 127.154 174.49C126.454 174.07 125.874 173.5 125.414 172.78C124.974 172.06 124.754 171.1 124.754 169.9C124.754 168.8 125.024 167.77 125.564 166.81C126.104 165.83 126.944 165.04 128.084 164.44C129.224 163.84 130.684 163.54 132.464 163.54C133.684 163.54 134.714 163.65 135.554 163.87C136.414 164.09 137.304 164.42 138.224 164.86V169.51C137.524 168.97 136.714 168.48 135.794 168.04C134.894 167.6 133.944 167.35 132.944 167.29C132.024 167.25 131.254 167.4 130.634 167.74C130.014 168.08 129.704 168.61 129.704 169.33C129.704 169.89 129.874 170.33 130.214 170.65C130.554 170.97 131.014 171.24 131.594 171.46C132.194 171.66 132.874 171.88 133.634 172.12C134.714 172.44 135.684 172.82 136.544 173.26C137.404 173.7 138.084 174.29 138.584 175.03C139.084 175.77 139.334 176.74 139.334 177.94C139.334 179.16 139.054 180.26 138.494 181.24C137.934 182.2 137.114 182.97 136.034 183.55C134.974 184.11 133.684 184.39 132.164 184.39Z" fill="#3C2F35"/>
<rect x="0.5" y="0.5" width="141" height="141" rx="31.5" fill="#F16097" stroke="#FBCCDE"/>
<path fill-rule="evenodd" clip-rule="evenodd" d="M78.6729 30C81.9539 30 81.3979 38.518 87.1369 42.231C92.8759 45.944 101.513 41.223 103.388 44.271C105.263 47.319 108.988 54.007 110.633 56.821C112.278 59.635 105.365 63.497 105.365 70.586C105.365 77.675 112.508 82.315 110.633 85.363C108.758 88.411 105.263 95.099 103.388 97.913C101.513 100.727 94.2249 96.913 88.1489 99.953C82.0729 102.993 82.4229 112.184 78.6729 112.184H64.1839C60.4329 112.184 61.2689 105.038 55.5309 100.649C49.7929 96.26 41.5779 100.961 39.4679 97.913C36.7918 93.886 34.372 89.6943 32.2229 85.363C30.8169 82.315 38.5289 79.024 38.5289 71.598C38.5289 64.172 30.5829 59.869 32.2229 56.821C33.8629 53.773 37.8229 46.85 39.4679 44.271C41.5769 41.223 49.6679 45.944 55.7439 42.231C61.8199 38.518 59.9649 30 64.1839 30H78.6729ZM73.7639 38.645C76.3879 38.645 76.9579 45.606 83.0439 49.715C88.6039 53.47 96.8919 49.952 98.3909 52.389C99.8899 54.826 99.7909 55.589 101.105 57.844C102.419 60.099 96.2439 62.944 96.5439 70.716C96.8529 78.698 102.538 83.231 101.038 85.668C99.5379 88.105 100.657 86.475 99.1569 89.43C97.9339 91.842 90.1689 88.698 83.7939 92.467C77.4389 96.224 76.7629 103.538 73.7639 103.538H69.0639C66.0639 103.538 66.0409 97.23 59.6359 92.983C53.6469 89.012 45.3579 92.808 43.6709 90.371C42.5279 88.9353 41.5793 87.355 40.8499 85.671C39.7249 83.234 47.0439 78.571 47.0439 71.471C47.0439 63.687 39.4979 59.346 40.8099 56.908C41.6213 55.3547 42.5173 53.8471 43.4939 52.392C45.1809 49.954 53.8629 53.521 59.7939 49.718C66.4739 45.433 64.7489 38.648 68.1229 38.648H73.7659L73.7639 38.645ZM71.4409 54.592C74.7043 54.592 77.8944 55.5597 80.6079 57.3728C83.3213 59.1858 85.4361 61.7627 86.685 64.7777C87.9338 67.7927 88.2606 71.1103 87.6239 74.311C86.9872 77.5117 85.4158 80.4517 83.1082 82.7593C80.8006 85.0668 77.8606 86.6383 74.6599 87.275C71.4592 87.9116 68.1416 87.5849 65.1267 86.336C62.1117 85.0872 59.5347 82.9723 57.7217 80.2589C55.9087 77.5455 54.9409 74.3554 54.9409 71.092C54.9409 66.7159 56.6793 62.5191 59.7737 59.4247C62.868 56.3304 67.0649 54.592 71.4409 54.592ZM71.4409 62.592C73.1221 62.592 74.7655 63.0905 76.1633 64.0245C77.5611 64.9585 78.6506 66.286 79.2939 67.8392C79.9373 69.3924 80.1056 71.1014 79.7776 72.7503C79.4496 74.3991 78.6401 75.9137 77.4514 77.1024C76.2626 78.2912 74.748 79.1007 73.0992 79.4287C71.4504 79.7567 69.7413 79.5883 68.1881 78.945C66.635 78.3016 65.3074 77.2122 64.3735 75.8143C63.4395 74.4165 62.9409 72.7731 62.9409 71.092C62.9409 68.8377 63.8365 66.6757 65.4305 65.0816C67.0246 63.4875 69.1866 62.592 71.4409 62.592Z" fill="white"/>
</svg>
