<svg width="70" height="47" viewBox="0 0 70 47" fill="none" xmlns="http://www.w3.org/2000/svg">
<path fill-rule="evenodd" clip-rule="evenodd" d="M34.939 0C54.239 0 69.879 10.417 69.879 23.267C69.879 36.117 54.237 46.533 34.939 46.533C15.641 46.533 0 36.116 0 23.267C0 10.418 15.643 0 34.939 0ZM22.583 11.294C26.271 11.294 29.262 16.654 29.262 23.267C29.262 29.88 26.271 35.239 22.583 35.239C18.895 35.239 15.905 29.879 15.905 23.267C15.905 16.655 18.895 11.294 22.583 11.294ZM46.957 11.294C50.645 11.294 53.635 16.654 53.635 23.267C53.635 29.88 50.645 35.239 46.957 35.239C43.269 35.239 40.279 29.879 40.279 23.267C40.279 16.655 43.273 11.294 46.957 11.294V11.294Z" fill="#3C2F35"/>
</svg>
