<?xml version="1.0" encoding="utf-8"?>
<!-- Generator: Adobe Illustrator 25.3.1, SVG Export Plug-In . SVG Version: 6.00 Build 0)  -->
<svg version="1.1" id="Wash" xmlns="http://www.w3.org/2000/svg" xmlns:xlink="http://www.w3.org/1999/xlink" x="0px" y="0px"
	 viewBox="0 0 242 232" style="enable-background:new 0 0 242 232;" xml:space="preserve">
<style type="text/css">
	.st0{fill-rule:evenodd;clip-rule:evenodd;fill:#FCFCFC;}
	.st1{fill-rule:evenodd;clip-rule:evenodd;fill:#3C2F35;}
	.st2{fill:#B2AFB1;}
	.st3{font-family:'Arial-BoldMT';}
	.st4{font-size:30px;}
</style>
<path id="Button" class="st0" d="M43,16h155c11,0,20,9,20,20v145c0,11-9,20-20,20H43c-11,0-20-9-20-20V36C23,25,32,16,43,16z
	 M195,27c5.5,0,10,4.5,10,10v145c0,5.5-4.5,10-10,10s-10-4.5-10-10V37C185,31.5,189.5,27,195,27z"/>
<path id="Wash_Vector" class="st1" d="M136,59l-3,2c-2.2,1.3-3.7,1-6-1c-2.8-1.5-5.9-2.5-9-3c-1.3-0.2-2.6-0.4-4-0.5V60h3
	c2.2,0,4,1.8,4,4v4H97v-4c0-2.2,1.8-4,4-4h2v-4c-1.2,0-2,0-2,0c-3.9,0-7-3.1-7-7v-1c0-3.3,2.7-6,6-6c0,0,11.7-2,21,1
	c5.3,1.8,10.1,4.9,14,9C137.7,56.2,137.4,58.1,136,59z M121,75c5,0,8.2,3.8,9,9l8,35c0,9.9-8.1,18-18,18l0,0H97c-9.9,0-18-8.1-18-18
	l0,0l8-35c1-5,4-9,9-9H121z M108.5,120c6.9,0,12.5-5.6,12.5-12.5l0,0c0-6.9-9.7-18.5-12-18.5c-2.5,0-13,11.6-13,18.5
	C96,114.4,101.6,120,108.5,120L108.5,120z"/>
<text id="WASH-2" transform="matrix(1 0 0 1 59.392 178.022)" class="st2 st3 st4">WASH</text>
</svg>
