<svg xmlns="http://www.w3.org/2000/svg" viewBox="0 0 166.5 155"><defs><style>.cls-1{fill:#5c7ad9;}.cls-2{isolation:isolate;font-size:30px;fill:#3c2f35;font-family:Arial-BoldMT, Arial;font-weight:700;}</style></defs><g id="Laag_2" data-name="Laag 2"><g id="ItemsRight"><path id="Rectangle_5_copy_3" data-name="Rectangle 5 copy 3" class="cls-1" d="M10,0H156.47c5.54,0,10,9,10,20V135c0,11.05-4.49,20-10,20H10c-5.54,0-10-8.95-10-20V20C0,9,4.49,0,10,0Z"/><path id="Rectangle_5_copy_4" data-name="Rectangle 5 copy 4" class="cls-1" d="M10,0H156.47c5.54,0,10,9,10,20V135c0,11.05-4.49,20-10,20H10c-5.54,0-10-8.95-10-20V20C0,9,4.49,0,10,0Z"/><text id="AGE" class="cls-2" transform="translate(49.2 128.41)">AGE</text></g></g></svg>